<svg width="166" height="50" viewBox="0 0 166 50" fill="none" xmlns="http://www.w3.org/2000/svg">
<path d="M70.972 21.152L70.936 14.204C70.936 12.908 71.344 12.26 72.16 12.26C73 12.26 73.468 12.62 73.564 13.34C73.612 13.652 73.672 15.536 73.744 18.992C73.816 22.448 73.924 25.688 74.068 28.712C74.236 31.736 74.32 34.556 74.32 37.172C74.32 37.892 73.78 38.252 72.7 38.252C71.98 38.252 71.62 37.748 71.62 36.74C70.588 37.556 69.364 37.964 67.948 37.964C66.148 37.964 64.684 37.292 63.556 35.948C62.452 34.604 61.9 32.948 61.9 30.98C61.9 29.012 62.296 27.176 63.088 25.472C63.904 23.744 65.164 22.508 66.868 21.764C67.924 21.308 68.944 21.08 69.928 21.08C70.288 21.08 70.636 21.104 70.972 21.152ZM71.152 26.084C70.984 25.556 70.78 25.16 70.54 24.896C70.3 24.608 70.036 24.44 69.748 24.392C69.484 24.32 69.16 24.284 68.776 24.284C68.392 24.284 67.924 24.428 67.372 24.716C66.82 25.004 66.352 25.472 65.968 26.12C65.2 27.416 64.816 28.784 64.816 30.224C64.816 31.64 65.092 32.804 65.644 33.716C66.22 34.604 67.024 35.048 68.056 35.048C69.112 35.048 69.94 34.532 70.54 33.5C71.14 32.468 71.44 31.148 71.44 29.54C71.44 27.74 71.344 26.588 71.152 26.084ZM81.0393 32.744L81.0753 36.452C81.0753 36.884 80.8713 37.28 80.4633 37.64C80.0793 38 79.6953 38.18 79.3113 38.18C78.7593 38.18 78.4113 37.748 78.2673 36.884C78.2433 36.692 78.1473 34.94 77.9793 31.628C77.8113 28.292 77.4873 25.676 77.0073 23.78C76.7913 22.868 76.6833 22.328 76.6833 22.16C76.6833 21.368 77.1633 20.972 78.1233 20.972C78.5313 20.972 78.8553 21.128 79.0953 21.44C79.3353 21.752 79.4793 22.076 79.5273 22.412C79.5993 22.724 79.6593 23.156 79.7073 23.708C79.7553 24.26 79.7913 24.608 79.8153 24.752C80.3193 23.552 81.0753 22.652 82.0833 22.052C83.0913 21.452 84.1953 21.152 85.3953 21.152C87.3633 21.152 88.3473 21.656 88.3473 22.664C88.3473 23.168 88.1673 23.576 87.8073 23.888C87.4713 24.176 87.0753 24.32 86.6193 24.32C84.5793 24.32 83.1393 24.968 82.2993 26.264C81.4593 27.56 81.0393 29.72 81.0393 32.744ZM92.6229 15.248C93.0549 15.248 93.4629 15.452 93.8469 15.86C94.2309 16.268 94.4229 16.7 94.4229 17.156C94.4229 17.588 94.2069 18.032 93.7749 18.488C93.3669 18.944 92.9349 19.172 92.4789 19.172C92.0229 19.172 91.6029 18.98 91.2189 18.596C90.8589 18.212 90.6789 17.72 90.6789 17.12C90.6789 15.968 91.3029 15.344 92.5509 15.248C92.5749 15.248 92.5989 15.248 92.6229 15.248ZM94.1349 34.112L94.1709 36.632C94.1709 37.088 93.9909 37.472 93.6309 37.784C93.2709 38.072 92.8869 38.216 92.4789 38.216C91.8789 38.216 91.5669 37.916 91.5429 37.316C91.2309 29.66 91.0749 25.424 91.0749 24.608C91.0749 23.792 91.1109 22.796 91.1829 21.62C91.2309 21.188 91.5069 20.972 92.0109 20.972C93.2829 20.972 94.0029 21.488 94.1709 22.52C94.2429 23.048 94.2789 23.468 94.2789 23.78L94.1349 26.048V34.112ZM98.3697 13.664C98.3697 12.704 98.9697 12.224 100.17 12.224C100.722 12.224 101.046 12.56 101.142 13.232V18.632C101.142 19.64 101.154 20.648 101.178 21.656C101.658 21.512 102.27 21.44 103.014 21.44C105.342 21.44 107.142 22.22 108.414 23.78C109.686 25.34 110.322 27.296 110.322 29.648C110.322 32 109.566 33.992 108.054 35.624C106.566 37.232 104.646 38.036 102.294 38.036C99.9417 38.036 98.7657 37.376 98.7657 36.056C98.7657 34.712 98.6937 31.328 98.5497 25.904C98.4297 20.456 98.3697 16.376 98.3697 13.664ZM105.642 25.256C104.778 24.584 103.866 24.248 102.906 24.248C102.378 24.248 101.838 24.344 101.286 24.536C101.43 26.504 101.502 29.996 101.502 35.012C101.91 35.156 102.33 35.228 102.762 35.228C103.698 35.228 104.634 34.88 105.57 34.184C106.962 33.224 107.658 31.76 107.658 29.792C107.658 27.8 106.986 26.288 105.642 25.256ZM113.206 13.664C113.206 12.704 113.806 12.224 115.006 12.224C115.558 12.224 115.882 12.56 115.978 13.232V18.632C115.978 19.64 115.99 20.648 116.014 21.656C116.494 21.512 117.106 21.44 117.85 21.44C120.178 21.44 121.978 22.22 123.25 23.78C124.522 25.34 125.158 27.296 125.158 29.648C125.158 32 124.402 33.992 122.89 35.624C121.402 37.232 119.482 38.036 117.13 38.036C114.778 38.036 113.602 37.376 113.602 36.056C113.602 34.712 113.53 31.328 113.386 25.904C113.266 20.456 113.206 16.376 113.206 13.664ZM120.478 25.256C119.614 24.584 118.702 24.248 117.742 24.248C117.214 24.248 116.674 24.344 116.122 24.536C116.266 26.504 116.338 29.996 116.338 35.012C116.746 35.156 117.166 35.228 117.598 35.228C118.534 35.228 119.47 34.88 120.406 34.184C121.798 33.224 122.494 31.76 122.494 29.792C122.494 27.8 121.822 26.288 120.478 25.256ZM128.042 13.664C128.042 12.704 128.642 12.224 129.842 12.224C130.394 12.224 130.718 12.56 130.814 13.232V18.632C130.814 19.64 130.826 20.648 130.85 21.656C131.33 21.512 131.942 21.44 132.686 21.44C135.014 21.44 136.814 22.22 138.086 23.78C139.358 25.34 139.994 27.296 139.994 29.648C139.994 32 139.238 33.992 137.726 35.624C136.238 37.232 134.318 38.036 131.966 38.036C129.614 38.036 128.438 37.376 128.438 36.056C128.438 34.712 128.366 31.328 128.222 25.904C128.102 20.456 128.042 16.376 128.042 13.664ZM135.314 25.256C134.45 24.584 133.538 24.248 132.578 24.248C132.05 24.248 131.51 24.344 130.958 24.536C131.102 26.504 131.174 29.996 131.174 35.012C131.582 35.156 132.002 35.228 132.434 35.228C133.37 35.228 134.306 34.88 135.242 34.184C136.634 33.224 137.33 31.76 137.33 29.792C137.33 27.8 136.658 26.288 135.314 25.256ZM142.698 14.708C142.77 13.796 142.914 13.208 143.13 12.944C143.37 12.656 143.742 12.512 144.246 12.512C145.278 12.512 145.794 12.932 145.794 13.772C145.794 14.42 145.734 16.112 145.614 18.848C145.518 21.584 145.47 24.032 145.47 26.192C145.47 28.352 145.554 30.092 145.722 31.412C146.01 33.716 146.418 34.868 146.946 34.868C147.474 34.868 147.87 34.496 148.134 33.752C148.254 33.464 148.446 33.212 148.71 32.996C148.974 32.756 149.31 32.636 149.718 32.636C150.558 32.636 150.978 33.344 150.978 34.76C150.978 35.528 150.558 36.296 149.718 37.064C148.902 37.808 148.086 38.18 147.27 38.18C146.454 38.18 145.794 38.048 145.29 37.784C144.81 37.496 144.414 37.076 144.102 36.524C143.814 35.972 143.574 35.444 143.382 34.94C143.214 34.412 143.094 33.776 143.022 33.032C142.878 31.832 142.77 29.912 142.698 27.272C142.649 24.608 142.625 22.076 142.625 19.676C142.625 17.252 142.649 15.596 142.698 14.708ZM157.552 21.332C158.824 21.332 160.036 21.704 161.188 22.448C162.34 23.192 162.916 24.116 162.916 25.22C162.916 26.3 162.448 27.356 161.512 28.388C160.576 29.396 159.328 30.008 157.768 30.224C157.096 30.32 156.088 30.368 154.744 30.368C155.008 32.408 155.524 33.752 156.292 34.4C156.532 34.664 156.856 34.796 157.264 34.796C158.752 34.796 160 34.328 161.008 33.392C162.016 32.432 162.736 31.952 163.168 31.952C163.36 31.952 163.648 32.132 164.032 32.492C164.416 32.852 164.608 33.188 164.608 33.5C164.608 34.124 163.852 35.024 162.34 36.2C161.668 36.752 160.852 37.22 159.892 37.604C158.956 37.964 158.08 38.144 157.264 38.144C155.176 38.144 153.64 36.8 152.656 34.112C152.032 32.456 151.72 30.632 151.72 28.64C151.72 26.648 152.188 24.932 153.124 23.492C154.06 22.052 155.536 21.332 157.552 21.332ZM157.732 23.816C156.82 23.816 156.04 24.332 155.392 25.364C155.152 25.724 154.924 26.54 154.708 27.812C158.068 27.812 159.748 26.984 159.748 25.328C159.748 24.32 159.076 23.816 157.732 23.816Z" fill="#8F8F8F"/>
<path d="M25 48.2687C37.9442 48.2687 48.4375 37.7754 48.4375 24.8312C48.4375 11.8871 37.9442 1.39374 25 1.39374C12.0558 1.39374 1.5625 11.8871 1.5625 24.8312C1.5625 37.7754 12.0558 48.2687 25 48.2687Z" fill="#EC407A"/>
<path d="M25 0C11.2156 0 0 11.2156 0 25C0 38.7844 11.2156 50 25 50C38.7844 50 50 38.7844 50 25C50 11.2156 38.7844 0 25 0ZM46.8656 25.1875C41.5719 23.7906 36.1438 23.6281 30.9719 24.6937C30.2656 22.9312 29.5031 21.1969 28.6844 19.4844C33.3625 17.2969 37.6875 14.3313 41.4813 10.6656C44.8281 14.5063 46.875 19.5125 46.875 25C46.875 25.0625 46.8656 25.1219 46.8656 25.1875ZM39.2719 8.45938C35.7281 11.8813 31.6969 14.6688 27.3281 16.7063C24.9937 12.2375 22.2625 7.96875 19.1719 3.9375C21.0313 3.42187 22.9781 3.125 25 3.125C30.4531 3.125 35.4375 5.14375 39.2719 8.45938ZM16.0844 5.04375C19.2562 9.08125 22.0406 13.3813 24.4125 17.8844C17.85 20.3906 10.725 21.3531 3.59063 20.5187C5.0375 13.5937 9.775 7.875 16.0844 5.04375ZM3.125 25C3.125 24.5312 3.16563 24.0719 3.19688 23.6125C5.04688 23.8313 6.89687 23.975 8.74062 23.975C14.6219 23.975 20.4 22.825 25.8156 20.7156C26.5656 22.2781 27.2719 23.8625 27.925 25.4687C20.2437 27.775 13.4 32.6938 8.79375 39.6406C5.28437 35.7594 3.125 30.6313 3.125 25ZM11.0781 41.8594C15.3156 35.1969 21.7781 30.5 29.05 28.375C31.025 33.8125 32.4469 39.4594 33.275 45.2375C30.7219 46.2875 27.9281 46.875 25 46.875C19.7156 46.875 14.8625 44.9906 11.0781 41.8594ZM36.2063 43.75C35.3469 38.2438 33.9844 32.8531 32.1187 27.65C36.8406 26.7625 41.7812 26.9719 46.5937 28.3312C45.5844 34.8812 41.675 40.4688 36.2063 43.75Z" fill="#C2185B"/>
</svg>
