<svg width="812" height="58" viewBox="0 0 812 58" fill="none" xmlns="http://www.w3.org/2000/svg">
<g clip-path="url(#clip0)">
<path d="M44.4275 19.3917C42.8483 19.3917 41.4587 20.0562 40.4358 21.0917C36.6754 18.45 31.6046 16.75 25.9858 16.5687L28.9045 3.22291L38.1983 5.33957C38.1983 7.64791 40.0525 9.53332 42.3275 9.53332C44.6462 9.53332 46.5108 7.59791 46.5108 5.28749C46.5108 2.97707 44.6587 1.04166 42.3296 1.04166C40.7066 1.04166 39.3066 2.03541 38.6087 3.39374L28.3441 1.08541C27.8275 0.945823 27.3212 1.32082 27.1837 1.84582L23.9796 16.5583C18.4045 16.7937 13.3879 18.4917 9.61496 21.1354C8.59205 20.0562 7.1483 19.3917 5.56913 19.3917C-0.289204 19.3917 -2.20795 27.3687 3.15663 30.0958C2.96705 30.9396 2.88163 31.8396 2.88163 32.7375C2.88163 41.6979 12.8295 48.9583 25.0441 48.9583C37.3108 48.9583 47.2587 41.6979 47.2587 32.7375C47.2587 31.8396 47.165 30.8979 46.9337 30.0521C52.19 27.3146 50.2546 19.3958 44.4275 19.3917V19.3917ZM11.6691 30.6625C11.6691 28.3104 13.5233 26.4167 15.8525 26.4167C18.1275 26.4167 19.9837 28.2979 19.9837 30.6625C19.9837 32.9729 18.1295 34.8562 15.8525 34.8562C13.5337 34.8667 11.6691 32.9729 11.6691 30.6625V30.6625ZM34.2504 40.6583C30.415 44.55 19.592 44.55 15.7545 40.6583C15.3316 40.2833 15.3316 39.6208 15.7545 39.1937C16.1233 38.8187 16.7775 38.8187 17.1462 39.1937C20.0754 42.2417 29.7921 42.2937 32.8483 39.1937C33.2171 38.8187 33.8712 38.8187 34.24 39.1937C34.6712 39.6229 34.6712 40.2854 34.2504 40.6583V40.6583ZM34.165 34.8646C31.89 34.8646 30.0358 32.9833 30.0358 30.675C30.0358 28.3229 31.89 26.4292 34.165 26.4292C36.4837 26.4292 38.3483 28.3104 38.3483 30.675C38.3379 32.9729 36.4837 34.8646 34.165 34.8646Z" fill="#FF5722"/>
</g>
<path d="M82.696 42L76.936 31.992H73.804V42H69.7V16.98H78.34C80.26 16.98 81.88 17.316 83.2 17.988C84.544 18.66 85.54 19.56 86.188 20.688C86.86 21.816 87.196 23.076 87.196 24.468C87.196 26.1 86.716 27.588 85.756 28.932C84.82 30.252 83.368 31.152 81.4 31.632L87.592 42H82.696ZM73.804 28.716H78.34C79.876 28.716 81.028 28.332 81.796 27.564C82.588 26.796 82.984 25.764 82.984 24.468C82.984 23.172 82.6 22.164 81.832 21.444C81.064 20.7 79.9 20.328 78.34 20.328H73.804V28.716ZM110.626 31.596C110.626 32.34 110.578 33.012 110.482 33.612H95.3261C95.4461 35.196 96.0341 36.468 97.0901 37.428C98.1461 38.388 99.4421 38.868 100.978 38.868C103.186 38.868 104.746 37.944 105.658 36.096H110.086C109.486 37.92 108.394 39.42 106.81 40.596C105.25 41.748 103.306 42.324 100.978 42.324C99.0821 42.324 97.3781 41.904 95.8661 41.064C94.3781 40.2 93.2021 39 92.3381 37.464C91.4981 35.904 91.0781 34.104 91.0781 32.064C91.0781 30.024 91.4861 28.236 92.3021 26.7C93.1421 25.14 94.3061 23.94 95.7941 23.1C97.3061 22.26 99.0341 21.84 100.978 21.84C102.85 21.84 104.518 22.248 105.982 23.064C107.446 23.88 108.586 25.032 109.402 26.52C110.218 27.984 110.626 29.676 110.626 31.596ZM106.342 30.3C106.318 28.788 105.778 27.576 104.722 26.664C103.666 25.752 102.358 25.296 100.798 25.296C99.3821 25.296 98.1701 25.752 97.1621 26.664C96.1541 27.552 95.5541 28.764 95.3621 30.3H106.342ZM113.297 31.992C113.297 30 113.705 28.236 114.521 26.7C115.361 25.164 116.489 23.976 117.905 23.136C119.345 22.272 120.941 21.84 122.693 21.84C123.989 21.84 125.261 22.128 126.509 22.704C127.781 23.256 128.789 24 129.533 24.936V15.36H133.673V42H129.533V39.012C128.861 39.972 127.925 40.764 126.725 41.388C125.549 42.012 124.193 42.324 122.657 42.324C120.929 42.324 119.345 41.892 117.905 41.028C116.489 40.14 115.361 38.916 114.521 37.356C113.705 35.772 113.297 33.984 113.297 31.992ZM129.533 32.064C129.533 30.696 129.245 29.508 128.669 28.5C128.117 27.492 127.385 26.724 126.473 26.196C125.561 25.668 124.577 25.404 123.521 25.404C122.465 25.404 121.481 25.668 120.569 26.196C119.657 26.7 118.913 27.456 118.337 28.464C117.785 29.448 117.509 30.624 117.509 31.992C117.509 33.36 117.785 34.56 118.337 35.592C118.913 36.624 119.657 37.416 120.569 37.968C121.505 38.496 122.489 38.76 123.521 38.76C124.577 38.76 125.561 38.496 126.473 37.968C127.385 37.44 128.117 36.672 128.669 35.664C129.245 34.632 129.533 33.432 129.533 32.064ZM137.695 31.992C137.695 30 138.103 28.236 138.919 26.7C139.759 25.164 140.887 23.976 142.303 23.136C143.743 22.272 145.339 21.84 147.091 21.84C148.387 21.84 149.659 22.128 150.907 22.704C152.179 23.256 153.187 24 153.931 24.936V15.36H158.071V42H153.931V39.012C153.259 39.972 152.323 40.764 151.123 41.388C149.947 42.012 148.591 42.324 147.055 42.324C145.327 42.324 143.743 41.892 142.303 41.028C140.887 40.14 139.759 38.916 138.919 37.356C138.103 35.772 137.695 33.984 137.695 31.992ZM153.931 32.064C153.931 30.696 153.643 29.508 153.067 28.5C152.515 27.492 151.783 26.724 150.871 26.196C149.959 25.668 148.975 25.404 147.919 25.404C146.863 25.404 145.879 25.668 144.967 26.196C144.055 26.7 143.311 27.456 142.735 28.464C142.183 29.448 141.907 30.624 141.907 31.992C141.907 33.36 142.183 34.56 142.735 35.592C143.311 36.624 144.055 37.416 144.967 37.968C145.903 38.496 146.887 38.76 147.919 38.76C148.975 38.76 149.959 38.496 150.871 37.968C151.783 37.44 152.515 36.672 153.067 35.664C153.643 34.632 153.931 33.432 153.931 32.064ZM165.55 19.536C164.806 19.536 164.182 19.284 163.678 18.78C163.174 18.276 162.922 17.652 162.922 16.908C162.922 16.164 163.174 15.54 163.678 15.036C164.182 14.532 164.806 14.28 165.55 14.28C166.27 14.28 166.882 14.532 167.386 15.036C167.89 15.54 168.142 16.164 168.142 16.908C168.142 17.652 167.89 18.276 167.386 18.78C166.882 19.284 166.27 19.536 165.55 19.536ZM167.566 22.164V42H163.462V22.164H167.566ZM177.742 25.512V36.492C177.742 37.236 177.91 37.776 178.246 38.112C178.606 38.424 179.206 38.58 180.046 38.58H182.566V42H179.326C177.478 42 176.062 41.568 175.078 40.704C174.094 39.84 173.602 38.436 173.602 36.492V25.512H171.262V22.164H173.602V17.232H177.742V22.164H182.566V25.512H177.742Z" fill="#8F8F8F"/>
<path d="M378.804 40.688H387.264V44H374.7V18.98H378.804V40.688ZM392.784 21.536C392.04 21.536 391.416 21.284 390.912 20.78C390.408 20.276 390.156 19.652 390.156 18.908C390.156 18.164 390.408 17.54 390.912 17.036C391.416 16.532 392.04 16.28 392.784 16.28C393.504 16.28 394.116 16.532 394.62 17.036C395.124 17.54 395.376 18.164 395.376 18.908C395.376 19.652 395.124 20.276 394.62 20.78C394.116 21.284 393.504 21.536 392.784 21.536ZM394.8 24.164V44H390.696V24.164H394.8ZM410.196 23.84C411.756 23.84 413.148 24.164 414.372 24.812C415.62 25.46 416.592 26.42 417.288 27.692C417.984 28.964 418.332 30.5 418.332 32.3V44H414.264V32.912C414.264 31.136 413.82 29.78 412.932 28.844C412.044 27.884 410.832 27.404 409.296 27.404C407.76 27.404 406.536 27.884 405.624 28.844C404.736 29.78 404.292 31.136 404.292 32.912V44H400.188V24.164H404.292V26.432C404.964 25.616 405.816 24.98 406.848 24.524C407.904 24.068 409.02 23.84 410.196 23.84ZM431.415 34.1L440.559 44H435.015L427.671 35.468V44H423.567V17.36H427.671V32.84L434.871 24.164H440.559L431.415 34.1ZM461.681 33.596C461.681 34.34 461.633 35.012 461.537 35.612H446.381C446.501 37.196 447.089 38.468 448.145 39.428C449.201 40.388 450.497 40.868 452.033 40.868C454.241 40.868 455.801 39.944 456.713 38.096H461.141C460.541 39.92 459.449 41.42 457.865 42.596C456.305 43.748 454.361 44.324 452.033 44.324C450.137 44.324 448.433 43.904 446.921 43.064C445.433 42.2 444.257 41 443.393 39.464C442.553 37.904 442.133 36.104 442.133 34.064C442.133 32.024 442.541 30.236 443.357 28.7C444.197 27.14 445.361 25.94 446.849 25.1C448.361 24.26 450.089 23.84 452.033 23.84C453.905 23.84 455.573 24.248 457.037 25.064C458.501 25.88 459.641 27.032 460.457 28.52C461.273 29.984 461.681 31.676 461.681 33.596ZM457.397 32.3C457.373 30.788 456.833 29.576 455.777 28.664C454.721 27.752 453.413 27.296 451.853 27.296C450.437 27.296 449.225 27.752 448.217 28.664C447.209 29.552 446.609 30.764 446.417 32.3H457.397ZM464.352 33.992C464.352 32 464.76 30.236 465.576 28.7C466.416 27.164 467.544 25.976 468.96 25.136C470.4 24.272 471.996 23.84 473.748 23.84C475.044 23.84 476.316 24.128 477.564 24.704C478.836 25.256 479.844 26 480.588 26.936V17.36H484.728V44H480.588V41.012C479.916 41.972 478.98 42.764 477.78 43.388C476.604 44.012 475.248 44.324 473.712 44.324C471.984 44.324 470.4 43.892 468.96 43.028C467.544 42.14 466.416 40.916 465.576 39.356C464.76 37.772 464.352 35.984 464.352 33.992ZM480.588 34.064C480.588 32.696 480.3 31.508 479.724 30.5C479.172 29.492 478.44 28.724 477.528 28.196C476.616 27.668 475.632 27.404 474.576 27.404C473.52 27.404 472.536 27.668 471.624 28.196C470.712 28.7 469.968 29.456 469.392 30.464C468.84 31.448 468.564 32.624 468.564 33.992C468.564 35.36 468.84 36.56 469.392 37.592C469.968 38.624 470.712 39.416 471.624 39.968C472.56 40.496 473.544 40.76 474.576 40.76C475.632 40.76 476.616 40.496 477.528 39.968C478.44 39.44 479.172 38.672 479.724 37.664C480.3 36.632 480.588 35.432 480.588 34.064ZM492.206 21.536C491.462 21.536 490.838 21.284 490.334 20.78C489.83 20.276 489.578 19.652 489.578 18.908C489.578 18.164 489.83 17.54 490.334 17.036C490.838 16.532 491.462 16.28 492.206 16.28C492.926 16.28 493.538 16.532 494.042 17.036C494.546 17.54 494.798 18.164 494.798 18.908C494.798 19.652 494.546 20.276 494.042 20.78C493.538 21.284 492.926 21.536 492.206 21.536ZM494.222 24.164V44H490.118V24.164H494.222ZM509.618 23.84C511.178 23.84 512.57 24.164 513.794 24.812C515.042 25.46 516.014 26.42 516.71 27.692C517.406 28.964 517.754 30.5 517.754 32.3V44H513.686V32.912C513.686 31.136 513.242 29.78 512.354 28.844C511.466 27.884 510.254 27.404 508.718 27.404C507.182 27.404 505.958 27.884 505.046 28.844C504.158 29.78 503.714 31.136 503.714 32.912V44H499.61V24.164H503.714V26.432C504.386 25.616 505.238 24.98 506.27 24.524C507.326 24.068 508.442 23.84 509.618 23.84Z" fill="#8F8F8F"/>
<path d="M354.477 6H313.523C311.025 6 309 8.025 309 10.5229V51.477C309 53.975 311.025 56 313.523 56H354.477C356.975 56 359 53.975 359 51.477V10.5229C359 8.025 356.975 6 354.477 6ZM324.472 49.1733C324.472 49.9003 323.883 50.4895 323.156 50.4895H317.553C316.826 50.4895 316.237 49.9003 316.237 49.1733V25.6863C316.237 24.9593 316.826 24.37 317.553 24.37H323.156C323.883 24.37 324.472 24.9593 324.472 25.6863V49.1733ZM320.354 22.156C317.415 22.156 315.032 19.7729 315.032 16.8332C315.032 13.8936 317.415 11.5105 320.354 11.5105C323.294 11.5105 325.677 13.8936 325.677 16.8332C325.677 19.7729 323.294 22.156 320.354 22.156ZM353.753 49.2793C353.753 49.9476 353.211 50.4895 352.542 50.4895H346.53C345.862 50.4895 345.32 49.9476 345.32 49.2793V38.2626C345.32 36.6191 345.802 31.0609 341.025 31.0609C337.32 31.0609 336.568 34.8653 336.417 36.5726V49.2793C336.417 49.9476 335.875 50.4895 335.207 50.4895H329.392C328.724 50.4895 328.182 49.9476 328.182 49.2793V25.5802C328.182 24.9119 328.724 24.37 329.392 24.37H335.207C335.875 24.37 336.417 24.9119 336.417 25.5802V27.6293C337.791 25.5674 339.833 23.9759 344.18 23.9759C353.808 23.9759 353.753 32.9702 353.753 37.912V49.2793Z" fill="#0077B7"/>
<path d="M716.972 29.152L716.936 22.204C716.936 20.908 717.344 20.26 718.16 20.26C719 20.26 719.468 20.62 719.564 21.34C719.612 21.652 719.672 23.536 719.744 26.992C719.816 30.448 719.924 33.688 720.068 36.712C720.236 39.736 720.32 42.556 720.32 45.172C720.32 45.892 719.78 46.252 718.7 46.252C717.98 46.252 717.62 45.748 717.62 44.74C716.588 45.556 715.364 45.964 713.948 45.964C712.148 45.964 710.684 45.292 709.556 43.948C708.452 42.604 707.9 40.948 707.9 38.98C707.9 37.012 708.296 35.176 709.088 33.472C709.904 31.744 711.164 30.508 712.868 29.764C713.924 29.308 714.944 29.08 715.928 29.08C716.288 29.08 716.636 29.104 716.972 29.152ZM717.152 34.084C716.984 33.556 716.78 33.16 716.54 32.896C716.3 32.608 716.036 32.44 715.748 32.392C715.484 32.32 715.16 32.284 714.776 32.284C714.392 32.284 713.924 32.428 713.372 32.716C712.82 33.004 712.352 33.472 711.968 34.12C711.2 35.416 710.816 36.784 710.816 38.224C710.816 39.64 711.092 40.804 711.644 41.716C712.22 42.604 713.024 43.048 714.056 43.048C715.112 43.048 715.94 42.532 716.54 41.5C717.14 40.468 717.44 39.148 717.44 37.54C717.44 35.74 717.344 34.588 717.152 34.084ZM727.039 40.744L727.075 44.452C727.075 44.884 726.871 45.28 726.463 45.64C726.079 46 725.695 46.18 725.311 46.18C724.759 46.18 724.411 45.748 724.267 44.884C724.243 44.692 724.147 42.94 723.979 39.628C723.811 36.292 723.487 33.676 723.007 31.78C722.791 30.868 722.683 30.328 722.683 30.16C722.683 29.368 723.163 28.972 724.123 28.972C724.531 28.972 724.855 29.128 725.095 29.44C725.335 29.752 725.479 30.076 725.527 30.412C725.599 30.724 725.659 31.156 725.707 31.708C725.755 32.26 725.791 32.608 725.815 32.752C726.319 31.552 727.075 30.652 728.083 30.052C729.091 29.452 730.195 29.152 731.395 29.152C733.363 29.152 734.347 29.656 734.347 30.664C734.347 31.168 734.167 31.576 733.807 31.888C733.471 32.176 733.075 32.32 732.619 32.32C730.579 32.32 729.139 32.968 728.299 34.264C727.459 35.56 727.039 37.72 727.039 40.744ZM738.623 23.248C739.055 23.248 739.463 23.452 739.847 23.86C740.231 24.268 740.423 24.7 740.423 25.156C740.423 25.588 740.207 26.032 739.775 26.488C739.367 26.944 738.935 27.172 738.479 27.172C738.023 27.172 737.603 26.98 737.219 26.596C736.859 26.212 736.679 25.72 736.679 25.12C736.679 23.968 737.303 23.344 738.551 23.248C738.575 23.248 738.599 23.248 738.623 23.248ZM740.135 42.112L740.171 44.632C740.171 45.088 739.991 45.472 739.631 45.784C739.271 46.072 738.887 46.216 738.479 46.216C737.879 46.216 737.567 45.916 737.543 45.316C737.231 37.66 737.075 33.424 737.075 32.608C737.075 31.792 737.111 30.796 737.183 29.62C737.231 29.188 737.507 28.972 738.011 28.972C739.283 28.972 740.003 29.488 740.171 30.52C740.243 31.048 740.279 31.468 740.279 31.78L740.135 34.048V42.112ZM744.37 21.664C744.37 20.704 744.97 20.224 746.17 20.224C746.722 20.224 747.046 20.56 747.142 21.232V26.632C747.142 27.64 747.154 28.648 747.178 29.656C747.658 29.512 748.27 29.44 749.014 29.44C751.342 29.44 753.142 30.22 754.414 31.78C755.686 33.34 756.322 35.296 756.322 37.648C756.322 40 755.566 41.992 754.054 43.624C752.566 45.232 750.646 46.036 748.294 46.036C745.942 46.036 744.766 45.376 744.766 44.056C744.766 42.712 744.694 39.328 744.55 33.904C744.43 28.456 744.37 24.376 744.37 21.664ZM751.642 33.256C750.778 32.584 749.866 32.248 748.906 32.248C748.378 32.248 747.838 32.344 747.286 32.536C747.43 34.504 747.502 37.996 747.502 43.012C747.91 43.156 748.33 43.228 748.762 43.228C749.698 43.228 750.634 42.88 751.57 42.184C752.962 41.224 753.658 39.76 753.658 37.792C753.658 35.8 752.986 34.288 751.642 33.256ZM759.206 21.664C759.206 20.704 759.806 20.224 761.006 20.224C761.558 20.224 761.882 20.56 761.978 21.232V26.632C761.978 27.64 761.99 28.648 762.014 29.656C762.494 29.512 763.106 29.44 763.85 29.44C766.178 29.44 767.978 30.22 769.25 31.78C770.522 33.34 771.158 35.296 771.158 37.648C771.158 40 770.402 41.992 768.89 43.624C767.402 45.232 765.482 46.036 763.13 46.036C760.778 46.036 759.602 45.376 759.602 44.056C759.602 42.712 759.53 39.328 759.386 33.904C759.266 28.456 759.206 24.376 759.206 21.664ZM766.478 33.256C765.614 32.584 764.702 32.248 763.742 32.248C763.214 32.248 762.674 32.344 762.122 32.536C762.266 34.504 762.338 37.996 762.338 43.012C762.746 43.156 763.166 43.228 763.598 43.228C764.534 43.228 765.47 42.88 766.406 42.184C767.798 41.224 768.494 39.76 768.494 37.792C768.494 35.8 767.822 34.288 766.478 33.256ZM774.042 21.664C774.042 20.704 774.642 20.224 775.842 20.224C776.394 20.224 776.718 20.56 776.814 21.232V26.632C776.814 27.64 776.826 28.648 776.85 29.656C777.33 29.512 777.942 29.44 778.686 29.44C781.014 29.44 782.814 30.22 784.086 31.78C785.358 33.34 785.994 35.296 785.994 37.648C785.994 40 785.238 41.992 783.726 43.624C782.238 45.232 780.318 46.036 777.966 46.036C775.614 46.036 774.438 45.376 774.438 44.056C774.438 42.712 774.366 39.328 774.222 33.904C774.102 28.456 774.042 24.376 774.042 21.664ZM781.314 33.256C780.45 32.584 779.538 32.248 778.578 32.248C778.05 32.248 777.51 32.344 776.958 32.536C777.102 34.504 777.174 37.996 777.174 43.012C777.582 43.156 778.002 43.228 778.434 43.228C779.37 43.228 780.306 42.88 781.242 42.184C782.634 41.224 783.33 39.76 783.33 37.792C783.33 35.8 782.658 34.288 781.314 33.256ZM788.698 22.708C788.77 21.796 788.914 21.208 789.13 20.944C789.37 20.656 789.742 20.512 790.246 20.512C791.278 20.512 791.794 20.932 791.794 21.772C791.794 22.42 791.734 24.112 791.614 26.848C791.518 29.584 791.47 32.032 791.47 34.192C791.47 36.352 791.554 38.092 791.722 39.412C792.01 41.716 792.418 42.868 792.946 42.868C793.474 42.868 793.87 42.496 794.134 41.752C794.254 41.464 794.446 41.212 794.71 40.996C794.974 40.756 795.31 40.636 795.718 40.636C796.558 40.636 796.978 41.344 796.978 42.76C796.978 43.528 796.558 44.296 795.718 45.064C794.902 45.808 794.086 46.18 793.27 46.18C792.454 46.18 791.794 46.048 791.29 45.784C790.81 45.496 790.414 45.076 790.102 44.524C789.814 43.972 789.574 43.444 789.382 42.94C789.214 42.412 789.094 41.776 789.022 41.032C788.878 39.832 788.77 37.912 788.698 35.272C788.649 32.608 788.625 30.076 788.625 27.676C788.625 25.252 788.649 23.596 788.698 22.708ZM803.552 29.332C804.824 29.332 806.036 29.704 807.188 30.448C808.34 31.192 808.916 32.116 808.916 33.22C808.916 34.3 808.448 35.356 807.512 36.388C806.576 37.396 805.328 38.008 803.768 38.224C803.096 38.32 802.088 38.368 800.744 38.368C801.008 40.408 801.524 41.752 802.292 42.4C802.532 42.664 802.856 42.796 803.264 42.796C804.752 42.796 806 42.328 807.008 41.392C808.016 40.432 808.736 39.952 809.168 39.952C809.36 39.952 809.648 40.132 810.032 40.492C810.416 40.852 810.608 41.188 810.608 41.5C810.608 42.124 809.852 43.024 808.34 44.2C807.668 44.752 806.852 45.22 805.892 45.604C804.956 45.964 804.08 46.144 803.264 46.144C801.176 46.144 799.64 44.8 798.656 42.112C798.032 40.456 797.72 38.632 797.72 36.64C797.72 34.648 798.188 32.932 799.124 31.492C800.06 30.052 801.536 29.332 803.552 29.332ZM803.732 31.816C802.82 31.816 802.04 32.332 801.392 33.364C801.152 33.724 800.924 34.54 800.708 35.812C804.068 35.812 805.748 34.984 805.748 33.328C805.748 32.32 805.076 31.816 803.732 31.816Z" fill="#8F8F8F"/>
<path d="M671 56.2687C683.944 56.2687 694.438 45.7754 694.438 32.8312C694.438 19.8871 683.944 9.39374 671 9.39374C658.056 9.39374 647.562 19.8871 647.562 32.8312C647.562 45.7754 658.056 56.2687 671 56.2687Z" fill="#EC407A"/>
<path d="M671 8C657.216 8 646 19.2156 646 33C646 46.7844 657.216 58 671 58C684.784 58 696 46.7844 696 33C696 19.2156 684.784 8 671 8ZM692.866 33.1875C687.572 31.7906 682.144 31.6281 676.972 32.6937C676.266 30.9312 675.503 29.1969 674.684 27.4844C679.362 25.2969 683.688 22.3313 687.481 18.6656C690.828 22.5063 692.875 27.5125 692.875 33C692.875 33.0625 692.866 33.1219 692.866 33.1875ZM685.272 16.4594C681.728 19.8813 677.697 22.6688 673.328 24.7063C670.994 20.2375 668.263 15.9687 665.172 11.9375C667.031 11.4219 668.978 11.125 671 11.125C676.453 11.125 681.438 13.1438 685.272 16.4594ZM662.084 13.0437C665.256 17.0813 668.041 21.3813 670.412 25.8844C663.85 28.3906 656.725 29.3531 649.591 28.5187C651.038 21.5937 655.775 15.875 662.084 13.0437ZM649.125 33C649.125 32.5312 649.166 32.0719 649.197 31.6125C651.047 31.8313 652.897 31.975 654.741 31.975C660.622 31.975 666.4 30.825 671.816 28.7156C672.566 30.2781 673.272 31.8625 673.925 33.4687C666.244 35.775 659.4 40.6938 654.794 47.6406C651.284 43.7594 649.125 38.6313 649.125 33ZM657.078 49.8594C661.316 43.1969 667.778 38.5 675.05 36.375C677.025 41.8125 678.447 47.4594 679.275 53.2375C676.722 54.2875 673.928 54.875 671 54.875C665.716 54.875 660.863 52.9906 657.078 49.8594ZM682.206 51.75C681.347 46.2438 679.984 40.8531 678.119 35.65C682.841 34.7625 687.781 34.9719 692.594 36.3312C691.584 42.8812 687.675 48.4688 682.206 51.75Z" fill="#C2185B"/>
<defs>
<clipPath id="clip0">
<rect width="50" height="50" fill="white"/>
</clipPath>
</defs>
</svg>
