<svg width="210" height="42" viewBox="0 0 210 42" fill="none" xmlns="http://www.w3.org/2000/svg">
<path d="M54.032 23.624C54.032 21.992 54.4 20.528 55.136 19.232C55.872 17.92 56.872 16.896 58.136 16.16C59.416 15.424 60.832 15.056 62.384 15.056C64.208 15.056 65.8 15.496 67.16 16.376C68.52 17.256 69.512 18.504 70.136 20.12H67.52C67.056 19.112 66.384 18.336 65.504 17.792C64.64 17.248 63.6 16.976 62.384 16.976C61.216 16.976 60.168 17.248 59.24 17.792C58.312 18.336 57.584 19.112 57.056 20.12C56.528 21.112 56.264 22.28 56.264 23.624C56.264 24.952 56.528 26.12 57.056 27.128C57.584 28.12 58.312 28.888 59.24 29.432C60.168 29.976 61.216 30.248 62.384 30.248C63.6 30.248 64.64 29.984 65.504 29.456C66.384 28.912 67.056 28.136 67.52 27.128H70.136C69.512 28.728 68.52 29.968 67.16 30.848C65.8 31.712 64.208 32.144 62.384 32.144C60.832 32.144 59.416 31.784 58.136 31.064C56.872 30.328 55.872 29.312 55.136 28.016C54.4 26.72 54.032 25.256 54.032 23.624ZM79.1231 32.216C77.8911 32.216 76.7711 31.936 75.7631 31.376C74.7711 30.816 73.9871 30.024 73.4111 29C72.8511 27.96 72.5711 26.76 72.5711 25.4C72.5711 24.056 72.8591 22.872 73.4351 21.848C74.0271 20.808 74.8271 20.016 75.8351 19.472C76.8431 18.912 77.9711 18.632 79.2191 18.632C80.4671 18.632 81.5951 18.912 82.6031 19.472C83.6111 20.016 84.4031 20.8 84.9791 21.824C85.5711 22.848 85.8671 24.04 85.8671 25.4C85.8671 26.76 85.5631 27.96 84.9551 29C84.3631 30.024 83.5551 30.816 82.5311 31.376C81.5071 31.936 80.3711 32.216 79.1231 32.216ZM79.1231 30.296C79.9071 30.296 80.6431 30.112 81.3311 29.744C82.0191 29.376 82.5711 28.824 82.9871 28.088C83.4191 27.352 83.6351 26.456 83.6351 25.4C83.6351 24.344 83.4271 23.448 83.0111 22.712C82.5951 21.976 82.0511 21.432 81.3791 21.08C80.7071 20.712 79.9791 20.528 79.1951 20.528C78.3951 20.528 77.6591 20.712 76.9871 21.08C76.3311 21.432 75.8031 21.976 75.4031 22.712C75.0031 23.448 74.8031 24.344 74.8031 25.4C74.8031 26.472 74.9951 27.376 75.3791 28.112C75.7791 28.848 76.3071 29.4 76.9631 29.768C77.6191 30.12 78.3391 30.296 79.1231 30.296ZM100.403 18.848V32H98.2186V30.056C97.8026 30.728 97.2186 31.256 96.4666 31.64C95.7306 32.008 94.9146 32.192 94.0186 32.192C92.9946 32.192 92.0746 31.984 91.2586 31.568C90.4426 31.136 89.7946 30.496 89.3146 29.648C88.8506 28.8 88.6186 27.768 88.6186 26.552V18.848H90.7786V26.264C90.7786 27.56 91.1066 28.56 91.7626 29.264C92.4186 29.952 93.3146 30.296 94.4506 30.296C95.6186 30.296 96.5386 29.936 97.2106 29.216C97.8826 28.496 98.2186 27.448 98.2186 26.072V18.848H100.403ZM106.274 20.984C106.658 20.232 107.202 19.648 107.906 19.232C108.626 18.816 109.498 18.608 110.522 18.608V20.864H109.946C107.498 20.864 106.274 22.192 106.274 24.848V32H104.09V18.848H106.274V20.984ZM117.699 32.216C116.691 32.216 115.787 32.048 114.987 31.712C114.187 31.36 113.555 30.88 113.091 30.272C112.627 29.648 112.371 28.936 112.323 28.136H114.579C114.643 28.792 114.947 29.328 115.491 29.744C116.051 30.16 116.779 30.368 117.675 30.368C118.507 30.368 119.163 30.184 119.643 29.816C120.123 29.448 120.363 28.984 120.363 28.424C120.363 27.848 120.107 27.424 119.595 27.152C119.083 26.864 118.291 26.584 117.219 26.312C116.243 26.056 115.443 25.8 114.819 25.544C114.211 25.272 113.683 24.88 113.235 24.368C112.803 23.84 112.587 23.152 112.587 22.304C112.587 21.632 112.787 21.016 113.187 20.456C113.587 19.896 114.155 19.456 114.891 19.136C115.627 18.8 116.467 18.632 117.411 18.632C118.867 18.632 120.043 19 120.939 19.736C121.835 20.472 122.315 21.48 122.379 22.76H120.195C120.147 22.072 119.867 21.52 119.355 21.104C118.859 20.688 118.187 20.48 117.339 20.48C116.555 20.48 115.931 20.648 115.467 20.984C115.003 21.32 114.771 21.76 114.771 22.304C114.771 22.736 114.907 23.096 115.179 23.384C115.467 23.656 115.819 23.88 116.235 24.056C116.667 24.216 117.259 24.4 118.011 24.608C118.955 24.864 119.723 25.12 120.315 25.376C120.907 25.616 121.411 25.984 121.827 26.48C122.259 26.976 122.483 27.624 122.499 28.424C122.499 29.144 122.299 29.792 121.899 30.368C121.499 30.944 120.931 31.4 120.195 31.736C119.475 32.056 118.643 32.216 117.699 32.216ZM137.582 24.92C137.582 25.336 137.558 25.776 137.51 26.24H126.998C127.078 27.536 127.518 28.552 128.318 29.288C129.134 30.008 130.118 30.368 131.27 30.368C132.214 30.368 132.998 30.152 133.622 29.72C134.262 29.272 134.71 28.68 134.966 27.944H137.318C136.966 29.208 136.262 30.24 135.206 31.04C134.15 31.824 132.838 32.216 131.27 32.216C130.022 32.216 128.902 31.936 127.91 31.376C126.934 30.816 126.166 30.024 125.606 29C125.046 27.96 124.766 26.76 124.766 25.4C124.766 24.04 125.038 22.848 125.582 21.824C126.126 20.8 126.886 20.016 127.862 19.472C128.854 18.912 129.99 18.632 131.27 18.632C132.518 18.632 133.622 18.904 134.582 19.448C135.542 19.992 136.278 20.744 136.79 21.704C137.318 22.648 137.582 23.72 137.582 24.92ZM135.326 24.464C135.326 23.632 135.142 22.92 134.774 22.328C134.406 21.72 133.902 21.264 133.262 20.96C132.638 20.64 131.942 20.48 131.174 20.48C130.07 20.48 129.126 20.832 128.342 21.536C127.574 22.24 127.134 23.216 127.022 24.464H135.326ZM151.649 20.168C151.649 21.56 151.169 22.72 150.209 23.648C149.265 24.56 147.817 25.016 145.865 25.016H142.649V32H140.465V15.272H145.865C147.753 15.272 149.185 15.728 150.161 16.64C151.153 17.552 151.649 18.728 151.649 20.168ZM145.865 23.216C147.081 23.216 147.977 22.952 148.553 22.424C149.129 21.896 149.417 21.144 149.417 20.168C149.417 18.104 148.233 17.072 145.865 17.072H142.649V23.216H145.865ZM155.492 16.712C155.076 16.712 154.724 16.568 154.436 16.28C154.148 15.992 154.004 15.64 154.004 15.224C154.004 14.808 154.148 14.456 154.436 14.168C154.724 13.88 155.076 13.736 155.492 13.736C155.892 13.736 156.228 13.88 156.5 14.168C156.788 14.456 156.932 14.808 156.932 15.224C156.932 15.64 156.788 15.992 156.5 16.28C156.228 16.568 155.892 16.712 155.492 16.712ZM156.548 18.848V32H154.364V18.848H156.548ZM159.454 25.4C159.454 24.04 159.726 22.856 160.27 21.848C160.814 20.824 161.566 20.032 162.526 19.472C163.502 18.912 164.614 18.632 165.862 18.632C167.478 18.632 168.806 19.024 169.846 19.808C170.902 20.592 171.598 21.68 171.934 23.072H169.582C169.358 22.272 168.918 21.64 168.262 21.176C167.622 20.712 166.822 20.48 165.862 20.48C164.614 20.48 163.606 20.912 162.838 21.776C162.07 22.624 161.686 23.832 161.686 25.4C161.686 26.984 162.07 28.208 162.838 29.072C163.606 29.936 164.614 30.368 165.862 30.368C166.822 30.368 167.622 30.144 168.262 29.696C168.902 29.248 169.342 28.608 169.582 27.776H171.934C171.582 29.12 170.878 30.2 169.822 31.016C168.766 31.816 167.446 32.216 165.862 32.216C164.614 32.216 163.502 31.936 162.526 31.376C161.566 30.816 160.814 30.024 160.27 29C159.726 27.976 159.454 26.776 159.454 25.4ZM182.192 32L177.032 26.192V32H174.848V14.24H177.032V24.68L182.096 18.848H185.144L178.952 25.4L185.168 32H182.192ZM199.2 24.92C199.2 25.336 199.176 25.776 199.128 26.24H188.616C188.696 27.536 189.136 28.552 189.936 29.288C190.752 30.008 191.736 30.368 192.888 30.368C193.832 30.368 194.616 30.152 195.24 29.72C195.88 29.272 196.328 28.68 196.584 27.944H198.936C198.584 29.208 197.88 30.24 196.824 31.04C195.768 31.824 194.456 32.216 192.888 32.216C191.64 32.216 190.52 31.936 189.528 31.376C188.552 30.816 187.784 30.024 187.224 29C186.664 27.96 186.384 26.76 186.384 25.4C186.384 24.04 186.656 22.848 187.2 21.824C187.744 20.8 188.504 20.016 189.48 19.472C190.472 18.912 191.608 18.632 192.888 18.632C194.136 18.632 195.24 18.904 196.2 19.448C197.16 19.992 197.896 20.744 198.408 21.704C198.936 22.648 199.2 23.72 199.2 24.92ZM196.944 24.464C196.944 23.632 196.76 22.92 196.392 22.328C196.024 21.72 195.52 21.264 194.88 20.96C194.256 20.64 193.56 20.48 192.792 20.48C191.688 20.48 190.744 20.832 189.96 21.536C189.192 22.24 188.752 23.216 188.64 24.464H196.944ZM204.266 20.984C204.65 20.232 205.194 19.648 205.898 19.232C206.618 18.816 207.49 18.608 208.514 18.608V20.864H207.938C205.49 20.864 204.266 22.192 204.266 24.848V32H202.082V18.848H204.266V20.984Z" fill="black"/>
<path d="M20.0002 23.9967L8.06775 20.3241V23.9373V26.4579C8.06775 29.2936 13.4119 31.5927 20.0037 31.5927C26.5953 31.5927 31.9403 29.2936 31.9403 26.4579C31.9403 26.4356 31.933 26.4132 31.9325 26.3913V20.3241L20.0002 23.9967Z" fill="#44AC67"/>
<path d="M0 16.1017L4.26283 17.6266L4.6261 16.8485L6.19215 16.7154L6.41543 16.9478L5.07162 17.2664L4.87576 17.8461C4.8754 17.8461 1.84031 24.1913 2.28607 27.2954C2.28607 27.2954 4.18059 28.4255 6.07429 27.2954L6.57755 18.8085V18.102L9.39643 17.4661L9.19734 17.9564L7.0956 18.6399L8.06766 18.9871L20.0001 22.6597L31.9324 18.9871L40 16.1017L20.0001 8.40726L0 16.1017Z" fill="#44AC67"/>
</svg>
