<svg width="400" height="290" viewBox="0 0 400 290" fill="none" xmlns="http://www.w3.org/2000/svg">
<g clip-path="url(#clip0)">
<path d="M254.9 217.358V287.251H79.7932C59.8422 287.251 43.6098 271.573 43.6098 252.304C43.6098 233.035 59.8421 217.358 79.7932 217.358H254.9Z" fill="#F2F2F2"/>
<path d="M259.201 286.713C259.201 287.426 258.918 288.109 258.413 288.613C257.909 289.117 257.226 289.401 256.513 289.401H76.6743C66.9069 289.401 57.5396 285.521 50.633 278.614C43.7264 271.708 39.8463 262.34 39.8463 252.573C39.8463 242.806 43.7264 233.438 50.633 226.532C57.5396 219.625 66.9069 215.745 76.6743 215.745H256.513C257.226 215.745 257.91 216.028 258.414 216.532C258.918 217.037 259.201 217.72 259.201 218.433C259.201 219.146 258.918 219.83 258.414 220.334C257.91 220.838 257.226 221.121 256.513 221.121H76.6743C68.3328 221.121 60.333 224.435 54.4346 230.333C48.5363 236.232 45.2227 244.232 45.2227 252.573C45.2227 260.915 48.5363 268.914 54.4346 274.813C60.333 280.711 68.3328 284.025 76.6743 284.025H256.513C257.226 284.025 257.909 284.308 258.413 284.812C258.918 285.316 259.201 286 259.201 286.713Z" fill="#44AC67"/>
<path d="M254.9 233.487H66.7281C66.5855 233.487 66.4487 233.43 66.3479 233.33C66.2471 233.229 66.1904 233.092 66.1904 232.95C66.1904 232.807 66.2471 232.67 66.3479 232.569C66.4487 232.469 66.5855 232.412 66.7281 232.412H254.9C255.043 232.412 255.179 232.469 255.28 232.569C255.381 232.67 255.438 232.807 255.438 232.95C255.438 233.092 255.381 233.229 255.28 233.33C255.179 233.43 255.043 233.487 254.9 233.487Z" fill="#CCCCCC"/>
<path d="M254.9 246.39H66.7281C66.5855 246.39 66.4487 246.334 66.3479 246.233C66.2471 246.132 66.1904 245.995 66.1904 245.853C66.1904 245.71 66.2471 245.573 66.3479 245.473C66.4487 245.372 66.5855 245.315 66.7281 245.315H254.9C255.043 245.315 255.179 245.372 255.28 245.473C255.381 245.573 255.438 245.71 255.438 245.853C255.438 245.995 255.381 246.132 255.28 246.233C255.179 246.334 255.043 246.39 254.9 246.39Z" fill="#CCCCCC"/>
<path d="M254.9 259.294H66.7281C66.5855 259.294 66.4487 259.237 66.3479 259.136C66.2471 259.035 66.1904 258.898 66.1904 258.756C66.1904 258.613 66.2471 258.477 66.3479 258.376C66.4487 258.275 66.5855 258.218 66.7281 258.218H254.9C255.043 258.218 255.179 258.275 255.28 258.376C255.381 258.477 255.438 258.613 255.438 258.756C255.438 258.898 255.381 259.035 255.28 259.136C255.179 259.237 255.043 259.294 254.9 259.294Z" fill="#CCCCCC"/>
<path d="M254.9 272.197H66.7281C66.5855 272.197 66.4487 272.14 66.3479 272.039C66.2471 271.938 66.1904 271.802 66.1904 271.659C66.1904 271.517 66.2471 271.38 66.3479 271.279C66.4487 271.178 66.5855 271.121 66.7281 271.121H254.9C255.043 271.121 255.179 271.178 255.28 271.279C255.381 271.38 255.438 271.517 255.438 271.659C255.438 271.802 255.381 271.938 255.28 272.039C255.179 272.14 255.043 272.197 254.9 272.197Z" fill="#CCCCCC"/>
<path d="M390.232 230.514L346.38 284.938L210.028 175.073C194.492 162.555 191.689 140.163 203.778 125.158C215.868 110.154 238.344 108.131 253.88 120.649L390.232 230.514Z" fill="#F2F2F2"/>
<path d="M350.067 287.218C349.619 287.773 348.97 288.128 348.261 288.204C347.552 288.28 346.842 288.072 346.287 287.625L206.25 174.79C198.644 168.662 193.784 159.763 192.74 150.052C191.695 140.341 194.551 130.612 200.679 123.006C206.808 115.401 215.706 110.541 225.417 109.496C235.129 108.452 244.857 111.308 252.463 117.436L392.5 230.271C392.775 230.492 393.004 230.765 393.173 231.075C393.343 231.385 393.449 231.725 393.487 232.076C393.525 232.428 393.493 232.783 393.394 233.122C393.295 233.46 393.129 233.776 392.908 234.051C392.686 234.326 392.413 234.555 392.103 234.724C391.793 234.893 391.452 235 391.101 235.038C390.75 235.075 390.395 235.043 390.056 234.944C389.717 234.844 389.402 234.679 389.127 234.457L249.09 121.622C245.874 119.029 242.179 117.095 238.215 115.93C234.251 114.765 230.097 114.392 225.989 114.833C221.881 115.275 217.901 116.521 214.275 118.5C210.649 120.48 207.448 123.155 204.856 126.372C202.264 129.589 200.331 133.285 199.168 137.249C198.004 141.213 197.634 145.368 198.076 149.475C198.519 153.583 199.767 157.563 201.748 161.188C203.729 164.814 206.405 168.013 209.623 170.604L349.66 283.438C350.215 283.886 350.569 284.535 350.646 285.244C350.722 285.953 350.514 286.663 350.067 287.218V287.218Z" fill="#CCCCCC"/>
<path d="M380.112 243.074L233.586 125.011C233.532 124.966 233.486 124.912 233.452 124.85C233.418 124.788 233.397 124.72 233.389 124.65C233.382 124.579 233.388 124.508 233.408 124.441C233.428 124.373 233.461 124.31 233.505 124.255C233.549 124.2 233.604 124.154 233.666 124.12C233.728 124.086 233.796 124.065 233.866 124.058C233.937 124.05 234.007 124.056 234.075 124.076C234.143 124.096 234.206 124.129 234.261 124.173L380.787 242.237C380.842 242.281 380.888 242.335 380.922 242.397C380.956 242.459 380.977 242.527 380.985 242.598C380.992 242.668 380.986 242.739 380.966 242.807C380.946 242.875 380.913 242.938 380.869 242.993C380.825 243.048 380.77 243.094 380.708 243.128C380.646 243.161 380.578 243.183 380.507 243.19C380.437 243.198 380.366 243.191 380.298 243.171C380.231 243.151 380.167 243.118 380.112 243.074V243.074Z" fill="#CCCCCC"/>
<path d="M372.017 253.121L225.491 135.058C225.38 134.969 225.309 134.839 225.294 134.697C225.279 134.556 225.321 134.414 225.41 134.303C225.499 134.192 225.629 134.121 225.771 134.106C225.912 134.09 226.054 134.132 226.165 134.221L372.691 252.284C372.746 252.328 372.792 252.383 372.826 252.445C372.86 252.507 372.881 252.575 372.889 252.645C372.897 252.716 372.89 252.787 372.87 252.854C372.851 252.922 372.817 252.985 372.773 253.04C372.729 253.095 372.674 253.141 372.612 253.175C372.55 253.209 372.482 253.23 372.412 253.238C372.341 253.245 372.27 253.239 372.203 253.219C372.135 253.199 372.072 253.166 372.017 253.121V253.121Z" fill="#CCCCCC"/>
<path d="M363.921 263.169L217.395 145.106C217.284 145.016 217.213 144.886 217.198 144.745C217.182 144.603 217.224 144.461 217.314 144.35C217.403 144.239 217.533 144.168 217.675 144.153C217.817 144.137 217.959 144.179 218.07 144.268L364.595 262.331C364.65 262.376 364.696 262.43 364.73 262.492C364.764 262.554 364.785 262.622 364.793 262.693C364.8 262.763 364.794 262.834 364.774 262.902C364.754 262.969 364.721 263.032 364.677 263.087C364.632 263.142 364.578 263.188 364.516 263.222C364.454 263.256 364.386 263.277 364.316 263.285C364.245 263.292 364.174 263.286 364.107 263.266C364.039 263.246 363.976 263.213 363.921 263.169V263.169Z" fill="#CCCCCC"/>
<path d="M355.825 273.216L209.299 155.153C209.244 155.109 209.199 155.054 209.165 154.992C209.131 154.93 209.11 154.862 209.102 154.792C209.094 154.722 209.101 154.651 209.121 154.583C209.141 154.515 209.174 154.452 209.218 154.397C209.262 154.342 209.317 154.297 209.379 154.263C209.441 154.229 209.509 154.208 209.579 154.2C209.649 154.192 209.72 154.199 209.788 154.219C209.856 154.239 209.919 154.272 209.974 154.316L356.5 272.379C356.555 272.423 356.601 272.478 356.635 272.54C356.668 272.602 356.69 272.67 356.697 272.74C356.705 272.81 356.699 272.882 356.679 272.949C356.659 273.017 356.626 273.08 356.582 273.135C356.537 273.19 356.482 273.236 356.42 273.27C356.358 273.304 356.29 273.325 356.22 273.333C356.15 273.34 356.079 273.334 356.011 273.314C355.943 273.294 355.88 273.261 355.825 273.216V273.216Z" fill="#CCCCCC"/>
<path d="M399.462 289.939H0.537634C0.395045 289.939 0.258295 289.882 0.157469 289.781C0.0566431 289.68 0 289.544 0 289.401C0 289.259 0.0566431 289.122 0.157469 289.021C0.258295 288.92 0.395045 288.864 0.537634 288.864H399.462C399.605 288.864 399.742 288.92 399.843 289.021C399.943 289.122 400 289.259 400 289.401C400 289.544 399.943 289.68 399.843 289.781C399.742 289.882 399.605 289.939 399.462 289.939Z" fill="#CCCCCC"/>
<path d="M181.764 210.012L175.618 210.011L172.695 186.304L181.766 186.305L181.764 210.012Z" fill="#FFB8B8"/>
<path d="M171.227 208.255H183.081V215.719H163.764C163.764 214.738 163.957 213.768 164.332 212.862C164.707 211.957 165.257 211.134 165.95 210.441C166.643 209.748 167.465 209.198 168.371 208.823C169.276 208.448 170.247 208.255 171.227 208.255V208.255Z" fill="#2F2E41"/>
<path d="M118.971 210.012L112.825 210.011L109.902 186.304L118.973 186.305L118.971 210.012Z" fill="#FFB8B8"/>
<path d="M108.434 208.255H120.288V215.719H100.971C100.971 214.738 101.164 213.768 101.539 212.862C101.914 211.957 102.464 211.134 103.157 210.441C103.85 209.748 104.673 209.198 105.578 208.823C106.484 208.448 107.454 208.255 108.434 208.255V208.255Z" fill="#2F2E41"/>
<path d="M139.5 34.1575V31.4693C139.5 26.8708 141.327 22.4606 144.579 19.209C147.83 15.9574 152.241 14.1306 156.839 14.1306H156.839C161.438 14.1306 165.848 15.9574 169.1 19.209C172.351 22.4606 174.178 26.8708 174.178 31.4693V34.1575C174.178 37.4727 172.861 40.6522 170.517 42.9964C168.173 45.3406 164.993 46.6575 161.678 46.6575H152C150.359 46.6575 148.734 46.3342 147.217 45.706C145.7 45.0779 144.322 44.1571 143.162 42.9964C142.001 41.8356 141.08 40.4576 140.452 38.9411C139.824 37.4245 139.5 35.7991 139.5 34.1575V34.1575Z" fill="#2F2E41"/>
<path d="M156.839 47.5826C164.132 47.5826 170.044 41.6705 170.044 34.3777C170.044 27.0849 164.132 21.1729 156.839 21.1729C149.546 21.1729 143.634 27.0849 143.634 34.3777C143.634 41.6705 149.546 47.5826 156.839 47.5826Z" fill="#FFB8B8"/>
<path d="M85.0132 79.761C85.5491 79.255 86.1894 78.8727 86.889 78.6409C87.5886 78.4091 88.3306 78.3336 89.0625 78.4196C89.7945 78.5055 90.4988 78.751 91.1256 79.1386C91.7525 79.5261 92.2868 80.0465 92.6908 80.6629L104.01 78.5216L106.989 85.0832L90.9614 87.8825C89.8809 88.4926 88.6141 88.6852 87.4011 88.4237C86.1881 88.1622 85.1132 87.4648 84.38 86.4638C83.6468 85.4627 83.3063 84.2274 83.423 82.9921C83.5397 81.7567 84.1055 80.6071 85.0132 79.761V79.761Z" fill="#FFB8B8"/>
<path d="M146.544 55.8986L146.692 56.1229L128.13 68.351L96.8085 78.3528C96.3933 78.4862 96.0372 78.7594 95.8007 79.1258C95.5643 79.4923 95.4621 79.9293 95.5117 80.3626L96.195 86.2479C96.2253 86.5084 96.3097 86.7596 96.4428 86.9856C96.5759 87.2115 96.7547 87.4072 96.9678 87.56C97.181 87.7128 97.4236 87.8193 97.6804 87.8728C97.9371 87.9264 98.2021 87.9257 98.4586 87.8707L127.937 81.552C129.364 81.248 130.712 80.6541 131.9 79.8072L152.754 64.9701C153.51 64.4293 154.113 63.7021 154.505 62.8591C154.897 62.0162 155.063 61.0862 154.989 60.1596C154.913 59.2318 154.596 58.3398 154.071 57.5715C153.545 56.8032 152.828 56.185 151.991 55.7777C151.154 55.3704 150.225 55.188 149.296 55.2485C148.367 55.3091 147.47 55.6104 146.692 56.1229L146.544 55.8986Z" fill="#CCCCCC"/>
<path d="M175.728 203.284C175.256 203.284 174.794 203.147 174.399 202.889C174.004 202.631 173.693 202.264 173.503 201.832L145.326 132.208C145.26 132.057 145.149 131.93 145.009 131.843C144.869 131.757 144.705 131.715 144.541 131.725C144.377 131.734 144.219 131.793 144.089 131.895C143.959 131.997 143.864 132.135 143.816 132.293L120.827 200.074C120.73 200.39 120.57 200.682 120.355 200.933C120.141 201.184 119.878 201.389 119.582 201.535C119.286 201.68 118.963 201.764 118.633 201.78C118.304 201.796 117.974 201.745 117.665 201.629L109.956 198.738C109.538 198.582 109.171 198.314 108.896 197.962C108.621 197.611 108.449 197.19 108.399 196.746C104.931 166.535 135.173 90.2786 135.479 89.5121L135.564 89.2997L163.132 95.3979L163.189 95.4604C174.188 107.459 183.229 183.139 184.929 198.188C184.993 198.732 184.869 199.281 184.579 199.745C184.288 200.209 183.849 200.56 183.332 200.74L176.528 203.147C176.271 203.238 176 203.284 175.728 203.284Z" fill="#2F2E41"/>
<path d="M151.974 97.8524C145.295 97.8524 137.848 96.5207 135.556 91.0241L135.504 90.8978L135.575 90.7808C137.384 87.8122 139.775 82.7483 138.49 81.7977C135.958 79.9257 134.73 76.8461 134.839 72.6443C135.075 63.5229 141.291 55.4245 150.304 52.4924H150.304C152.82 51.6873 155.381 51.028 157.973 50.518C159.862 50.1367 161.813 50.1787 163.684 50.6408C165.556 51.103 167.302 51.9739 168.797 53.191C170.31 54.4161 171.534 55.9612 172.379 57.7153C173.225 59.4695 173.671 61.3892 173.687 63.3365C173.781 73.0842 172.281 86.6608 164.594 95.9817C164.234 96.4142 163.733 96.7057 163.179 96.805C159.481 97.4739 155.732 97.8243 151.974 97.8524Z" fill="#CCCCCC"/>
<path d="M149.49 97.4875C149.853 96.1836 150.717 95.0758 151.892 94.4049C153.068 93.734 154.461 93.5542 155.769 93.9046C156.036 93.9792 156.296 94.0757 156.547 94.1929L165.142 86.371L171.119 90.398L158.828 101.275C158.273 102.276 157.399 103.062 156.346 103.509C155.292 103.956 154.12 104.037 153.015 103.741C152.371 103.565 151.768 103.262 151.242 102.852C150.716 102.442 150.276 101.931 149.948 101.349C149.62 100.768 149.411 100.127 149.332 99.4643C149.254 98.8014 149.307 98.1295 149.49 97.4875V97.4875Z" fill="#FFB8B8"/>
<path d="M163.781 97.5868C163.223 97.5872 162.682 97.3943 162.251 97.0411L158.861 94.2712C158.579 94.0403 158.352 93.7485 158.198 93.4176C158.044 93.0867 157.967 92.7253 157.973 92.3605C157.979 91.9957 158.067 91.6368 158.231 91.3108C158.395 90.9848 158.63 90.7002 158.92 90.4781L173.136 79.575C173.304 79.4452 173.415 79.2541 173.443 79.0432C173.472 78.8324 173.416 78.6188 173.288 78.4488L164.514 66.8487C163.494 65.5055 162.983 63.8449 163.07 62.1609C163.158 60.4769 163.838 58.8781 164.991 57.6475V57.6475C166.205 56.3362 167.868 55.5292 169.649 55.3867C171.431 55.2442 173.201 55.7766 174.608 56.8783L174.664 56.9369L183.826 70.0564C184.817 70.8333 185.614 71.8286 186.157 72.9647C186.699 74.1009 186.972 75.3471 186.953 76.6059C186.934 77.8648 186.625 79.1023 186.049 80.2218C185.473 81.3413 184.646 82.3124 183.632 83.0594L165.221 97.1124C164.804 97.4206 164.299 97.5868 163.781 97.5868Z" fill="#CCCCCC"/>
<path d="M145.143 30.6629V24.1112L156.839 19.0037L167.992 24.1112V30.6629C167.992 30.9481 167.879 31.2216 167.677 31.4232C167.475 31.6249 167.202 31.7381 166.917 31.7381H146.218C145.933 31.7381 145.659 31.6249 145.458 31.4232C145.256 31.2216 145.143 30.9481 145.143 30.6629Z" fill="#2F2E41"/>
<path d="M156.302 14.9998C154.582 9.49522 158.194 3.18671 163.534 1.00786C168.873 -1.171 175.261 0.352087 179.767 3.95188C184.272 7.55168 187.068 12.9435 188.549 18.517C190.03 24.0906 190.311 29.9024 190.585 35.6629C197.145 36.868 201.608 44.6491 199.335 50.9201C197.063 57.1911 188.651 60.3065 182.842 57.0289C177.033 53.7512 175.35 44.9404 179.543 39.7527C181.526 37.298 182.635 34.2516 182.692 31.096C182.749 27.9404 181.751 24.8559 179.857 22.3312C177.963 19.8065 175.281 17.9857 172.236 17.1574C169.19 16.3291 165.956 16.5405 163.044 17.7582C159.811 19.1103 155.754 15.5972 156.302 14.9998Z" fill="#2F2E41"/>
<path d="M82.5883 54.3455C74.7338 54.294 66.9775 52.5952 59.8204 49.359C59.3944 49.1692 59.0328 48.8595 58.7797 48.4677C58.5265 48.0759 58.3928 47.619 58.3947 47.1526V27.573C58.3954 26.9316 58.6506 26.3166 59.1041 25.8631C59.5577 25.4095 60.1726 25.1544 60.8141 25.1537H104.362C105.004 25.1544 105.619 25.4095 106.072 25.8631C106.526 26.3167 106.781 26.9316 106.782 27.573V47.1526C106.784 47.619 106.65 48.076 106.397 48.4677C106.144 48.8595 105.782 49.1692 105.356 49.3591C98.1991 52.5952 90.4427 54.294 82.5883 54.3455V54.3455Z" fill="#44AC67"/>
<path d="M82.5823 38.4837C82.2595 38.484 81.9398 38.4198 81.6422 38.2947L47.1089 23.7251C46.6635 23.5372 46.2847 23.2202 46.0212 22.815C45.7576 22.4099 45.6215 21.935 45.6304 21.4518C45.6392 20.9685 45.7927 20.499 46.0709 20.1037C46.349 19.7085 46.7392 19.4056 47.1912 19.2342L81.7249 6.13326C82.2811 5.92128 82.8961 5.92259 83.4514 6.13694L117.522 19.2378C117.972 19.4106 118.359 19.7136 118.636 20.1079C118.912 20.5022 119.064 20.97 119.073 21.4513C119.082 21.9327 118.947 22.4057 118.686 22.81C118.424 23.2142 118.048 23.5313 117.605 23.7206L83.5339 38.29C83.233 38.4181 82.9093 38.484 82.5823 38.4837V38.4837Z" fill="#44AC67"/>
<path d="M62.427 50.6914C64.2085 50.6914 65.6528 49.2471 65.6528 47.4656C65.6528 45.684 64.2085 44.2397 62.427 44.2397C60.6454 44.2397 59.2012 45.684 59.2012 47.4656C59.2012 49.2471 60.6454 50.6914 62.427 50.6914Z" fill="#3F3D56"/>
<path opacity="0.2" d="M117.723 21.6525L83.6515 36.222C83.3858 36.3355 83.1 36.3944 82.8112 36.3951C82.5223 36.3958 82.2362 36.3383 81.97 36.226L47.4367 21.6568C47.0031 21.4782 46.6412 21.1601 46.4085 20.753C46.2562 21.017 46.1618 21.3104 46.1317 21.6137C46.1015 21.917 46.1362 22.2233 46.2334 22.5122C46.3307 22.801 46.4883 23.0659 46.6957 23.2892C46.9032 23.5125 47.1558 23.6891 47.4367 23.8073L81.97 38.3766C82.2362 38.4889 82.5223 38.5464 82.8112 38.5457C83.1 38.545 83.3858 38.4861 83.6515 38.3725L117.723 23.803C118.003 23.6838 118.254 23.5067 118.46 23.2833C118.666 23.0599 118.822 22.7953 118.918 22.5071C119.014 22.2188 119.048 21.9134 119.018 21.611C118.988 21.3087 118.893 21.0162 118.742 20.7529C118.51 21.1569 118.152 21.4731 117.723 21.6525V21.6525Z" fill="black"/>
<path d="M62.698 47.4529C62.8406 47.4529 62.9774 47.3963 63.0782 47.2955C63.179 47.1946 63.2357 47.0579 63.2357 46.9153V28.9253L80.9675 22.4655C81.1101 22.4677 81.2477 22.413 81.35 22.3137C81.4523 22.2144 81.511 22.0785 81.5131 21.9359C81.5153 21.7933 81.4607 21.6557 81.3613 21.5534C81.262 21.4511 81.1261 21.3924 80.9835 21.3903L63.2517 27.85C63.109 27.8467 62.9671 27.8724 62.8347 27.9256C62.7022 27.9788 62.5819 28.0582 62.4811 28.1593C62.3792 28.259 62.2983 28.3782 62.2432 28.5098C62.1881 28.6414 62.16 28.7826 62.1604 28.9253V46.9153C62.1604 47.0579 62.2171 47.1946 62.3179 47.2954C62.4187 47.3963 62.5555 47.4529 62.698 47.4529V47.4529Z" fill="#3F3D56"/>
</g>
<defs>
<clipPath id="clip0">
<rect width="400" height="289.939" fill="white"/>
</clipPath>
</defs>
</svg>
