<svg width="212" height="54" viewBox="0 0 212 54" fill="none" xmlns="http://www.w3.org/2000/svg">
<path d="M69.804 36.688H78.264V40H65.7V14.98H69.804V36.688ZM83.7841 17.536C83.0401 17.536 82.4161 17.284 81.9121 16.78C81.4081 16.276 81.1561 15.652 81.1561 14.908C81.1561 14.164 81.4081 13.54 81.9121 13.036C82.4161 12.532 83.0401 12.28 83.7841 12.28C84.5041 12.28 85.1161 12.532 85.6201 13.036C86.1241 13.54 86.3761 14.164 86.3761 14.908C86.3761 15.652 86.1241 16.276 85.6201 16.78C85.1161 17.284 84.5041 17.536 83.7841 17.536ZM85.8001 20.164V40H81.6961V20.164H85.8001ZM101.196 19.84C102.756 19.84 104.148 20.164 105.372 20.812C106.62 21.46 107.592 22.42 108.288 23.692C108.984 24.964 109.332 26.5 109.332 28.3V40H105.264V28.912C105.264 27.136 104.82 25.78 103.932 24.844C103.044 23.884 101.832 23.404 100.296 23.404C98.7603 23.404 97.5363 23.884 96.6243 24.844C95.7363 25.78 95.2923 27.136 95.2923 28.912V40H91.1883V20.164H95.2923V22.432C95.9643 21.616 96.8163 20.98 97.8483 20.524C98.9043 20.068 100.02 19.84 101.196 19.84ZM122.415 30.1L131.559 40H126.015L118.671 31.468V40H114.567V13.36H118.671V28.84L125.871 20.164H131.559L122.415 30.1ZM152.681 29.596C152.681 30.34 152.633 31.012 152.537 31.612H137.381C137.501 33.196 138.089 34.468 139.145 35.428C140.201 36.388 141.497 36.868 143.033 36.868C145.241 36.868 146.801 35.944 147.713 34.096H152.141C151.541 35.92 150.449 37.42 148.865 38.596C147.305 39.748 145.361 40.324 143.033 40.324C141.137 40.324 139.433 39.904 137.921 39.064C136.433 38.2 135.257 37 134.393 35.464C133.553 33.904 133.133 32.104 133.133 30.064C133.133 28.024 133.541 26.236 134.357 24.7C135.197 23.14 136.361 21.94 137.849 21.1C139.361 20.26 141.089 19.84 143.033 19.84C144.905 19.84 146.573 20.248 148.037 21.064C149.501 21.88 150.641 23.032 151.457 24.52C152.273 25.984 152.681 27.676 152.681 29.596ZM148.397 28.3C148.373 26.788 147.833 25.576 146.777 24.664C145.721 23.752 144.413 23.296 142.853 23.296C141.437 23.296 140.225 23.752 139.217 24.664C138.209 25.552 137.609 26.764 137.417 28.3H148.397ZM155.352 29.992C155.352 28 155.76 26.236 156.576 24.7C157.416 23.164 158.544 21.976 159.96 21.136C161.4 20.272 162.996 19.84 164.748 19.84C166.044 19.84 167.316 20.128 168.564 20.704C169.836 21.256 170.844 22 171.588 22.936V13.36H175.728V40H171.588V37.012C170.916 37.972 169.98 38.764 168.78 39.388C167.604 40.012 166.248 40.324 164.712 40.324C162.984 40.324 161.4 39.892 159.96 39.028C158.544 38.14 157.416 36.916 156.576 35.356C155.76 33.772 155.352 31.984 155.352 29.992ZM171.588 30.064C171.588 28.696 171.3 27.508 170.724 26.5C170.172 25.492 169.44 24.724 168.528 24.196C167.616 23.668 166.632 23.404 165.576 23.404C164.52 23.404 163.536 23.668 162.624 24.196C161.712 24.7 160.968 25.456 160.392 26.464C159.84 27.448 159.564 28.624 159.564 29.992C159.564 31.36 159.84 32.56 160.392 33.592C160.968 34.624 161.712 35.416 162.624 35.968C163.56 36.496 164.544 36.76 165.576 36.76C166.632 36.76 167.616 36.496 168.528 35.968C169.44 35.44 170.172 34.672 170.724 33.664C171.3 32.632 171.588 31.432 171.588 30.064ZM183.206 17.536C182.462 17.536 181.838 17.284 181.334 16.78C180.83 16.276 180.578 15.652 180.578 14.908C180.578 14.164 180.83 13.54 181.334 13.036C181.838 12.532 182.462 12.28 183.206 12.28C183.926 12.28 184.538 12.532 185.042 13.036C185.546 13.54 185.798 14.164 185.798 14.908C185.798 15.652 185.546 16.276 185.042 16.78C184.538 17.284 183.926 17.536 183.206 17.536ZM185.222 20.164V40H181.118V20.164H185.222ZM200.618 19.84C202.178 19.84 203.57 20.164 204.794 20.812C206.042 21.46 207.014 22.42 207.71 23.692C208.406 24.964 208.754 26.5 208.754 28.3V40H204.686V28.912C204.686 27.136 204.242 25.78 203.354 24.844C202.466 23.884 201.254 23.404 199.718 23.404C198.182 23.404 196.958 23.884 196.046 24.844C195.158 25.78 194.714 27.136 194.714 28.912V40H190.61V20.164H194.714V22.432C195.386 21.616 196.238 20.98 197.27 20.524C198.326 20.068 199.442 19.84 200.618 19.84Z" fill="#8F8F8F"/>
<path d="M45.4771 2H4.52291C2.025 2 0 4.025 0 6.52291V47.477C0 49.975 2.025 52 4.52291 52H45.477C47.975 52 50 49.975 50 47.477V6.52291C50 4.025 47.975 2 45.4771 2ZM15.4721 45.1733C15.4721 45.9003 14.8829 46.4895 14.1559 46.4895H8.55301C7.82605 46.4895 7.23678 45.9003 7.23678 45.1733V21.6863C7.23678 20.9593 7.82605 20.37 8.55301 20.37H14.1559C14.8829 20.37 15.4721 20.9593 15.4721 21.6863V45.1733ZM11.3545 18.156C8.41479 18.156 6.03168 15.7729 6.03168 12.8332C6.03168 9.89359 8.41479 7.51047 11.3545 7.51047C14.2941 7.51047 16.6772 9.89359 16.6772 12.8332C16.6772 15.7729 14.2942 18.156 11.3545 18.156ZM44.7526 45.2793C44.7526 45.9476 44.2107 46.4895 43.5424 46.4895H37.5301C36.8618 46.4895 36.3199 45.9476 36.3199 45.2793V34.2626C36.3199 32.6191 36.802 27.0609 32.025 27.0609C28.3196 27.0609 27.5681 30.8653 27.4171 32.5726V45.2793C27.4171 45.9476 26.8754 46.4895 26.2069 46.4895H20.392C19.7237 46.4895 19.1818 45.9476 19.1818 45.2793V21.5802C19.1818 20.9119 19.7237 20.37 20.392 20.37H26.2069C26.8753 20.37 27.4171 20.9119 27.4171 21.5802V23.6293C28.7911 21.5674 30.833 19.9759 35.1805 19.9759C44.8077 19.9759 44.7526 28.9702 44.7526 33.912V45.2793Z" fill="#0077B7"/>
</svg>
