<svg width="387" height="375" viewBox="0 0 387 375" fill="none" xmlns="http://www.w3.org/2000/svg">
<path d="M193.5 320.67C276.382 320.67 343.571 316.869 343.571 312.18C343.571 307.491 276.382 303.69 193.5 303.69C110.618 303.69 43.4292 307.491 43.4292 312.18C43.4292 316.869 110.618 320.67 193.5 320.67Z" fill="#F5F5F5"/>
<path d="M201.557 274.125H102.818C101.23 274.103 99.7099 273.5 98.5615 272.438C97.4131 271.375 96.7218 269.931 96.6263 268.395L87.7717 102.232C87.7226 101.493 87.8316 100.752 88.0919 100.056C88.3521 99.3597 88.758 98.7229 89.2842 98.1857C89.8103 97.6484 90.4452 97.2222 91.1493 96.9339C91.8533 96.6455 92.6112 96.5012 93.3755 96.51H192.115C193.702 96.5299 195.222 97.131 196.371 98.1925C197.519 99.254 198.211 100.697 198.307 102.232L207.146 268.395C207.195 269.133 207.086 269.873 206.827 270.569C206.568 271.265 206.163 271.901 205.639 272.439C205.115 272.976 204.482 273.404 203.779 273.694C203.077 273.984 202.321 274.131 201.557 274.125V274.125Z" fill="#44AC67"/>
<path opacity="0.8" d="M201.557 274.125H102.818C101.23 274.103 99.7099 273.5 98.5615 272.438C97.4131 271.375 96.7218 269.931 96.6263 268.395L87.7717 102.232C87.7226 101.493 87.8316 100.752 88.0919 100.056C88.3521 99.3597 88.758 98.7229 89.2842 98.1857C89.8103 97.6484 90.4452 97.2222 91.1493 96.9339C91.8533 96.6455 92.6112 96.5012 93.3755 96.51H192.115C193.702 96.5299 195.222 97.131 196.371 98.1925C197.519 99.254 198.211 100.697 198.307 102.232L207.146 268.395C207.195 269.133 207.086 269.873 206.827 270.569C206.568 271.265 206.163 271.901 205.639 272.439C205.115 272.976 204.482 273.404 203.779 273.694C203.077 273.984 202.321 274.131 201.557 274.125V274.125Z" fill="white"/>
<path d="M182.37 91.095H171.449V91.845H182.37V91.095Z" fill="#44AC67"/>
<path d="M167.664 91.095H163.663V91.845H167.664V91.095Z" fill="#44AC67"/>
<path d="M205.807 263.58H111.379C109.858 263.566 108.399 262.994 107.296 261.979C106.193 260.965 105.528 259.583 105.434 258.112L96.9822 99.1875C96.9352 98.4802 97.0395 97.7711 97.2887 97.1046C97.5378 96.4382 97.9264 95.8289 98.43 95.3148C98.9336 94.8008 99.5414 94.3931 100.215 94.1174C100.889 93.8416 101.615 93.7038 102.346 93.7125H196.774C198.295 93.7288 199.752 94.3026 200.854 95.3184C201.955 96.3343 202.619 97.7167 202.711 99.1875L211.163 258.112C211.21 258.819 211.105 259.527 210.857 260.192C210.608 260.858 210.22 261.466 209.717 261.98C209.214 262.493 208.607 262.9 207.934 263.176C207.261 263.451 206.537 263.589 205.807 263.58Z" fill="#44AC67"/>
<path d="M205.807 259.927H111.378C110.825 259.909 110.297 259.694 109.896 259.324C109.495 258.953 109.249 258.453 109.204 257.917L100.744 99C100.725 98.7886 100.752 98.5757 100.824 98.3753C100.896 98.1749 101.011 97.9916 101.162 97.8375C101.313 97.6838 101.496 97.5628 101.698 97.4827C101.901 97.4025 102.119 97.3649 102.338 97.3725H196.766C197.319 97.3927 197.844 97.6085 198.244 97.9788C198.643 98.3492 198.888 98.8486 198.933 99.3825L207.432 258.3C207.451 258.511 207.423 258.723 207.351 258.922C207.279 259.122 207.165 259.305 207.015 259.458C206.865 259.612 206.683 259.733 206.482 259.814C206.28 259.895 206.063 259.934 205.845 259.927H205.807ZM102.338 97.56C102.146 97.554 101.954 97.5869 101.776 97.6566C101.597 97.7263 101.435 97.8314 101.301 97.965C101.172 98.1035 101.073 98.266 101.01 98.4426C100.948 98.6192 100.923 98.8063 100.937 98.9925L109.389 257.91C109.432 258.397 109.658 258.851 110.023 259.188C110.387 259.525 110.867 259.722 111.371 259.74H205.799C205.99 259.747 206.181 259.715 206.359 259.645C206.536 259.575 206.696 259.47 206.828 259.335C206.961 259.199 207.061 259.036 207.124 258.859C207.187 258.682 207.21 258.494 207.192 258.307L198.748 99.39C198.706 98.9039 198.483 98.4493 198.119 98.1121C197.755 97.7749 197.277 97.5785 196.774 97.56H102.338Z" fill="white"/>
<path opacity="0.3" d="M172.777 155.292C183.518 144.612 182.818 127.073 171.215 116.117C159.612 105.16 141.5 104.936 130.76 115.615C120.02 126.295 120.719 143.834 132.322 154.79C143.925 165.747 162.037 165.971 172.777 155.292Z" fill="white"/>
<path d="M174.924 135.457C175.141 139.143 174.376 142.821 172.703 146.138C170.892 149.695 168.08 152.684 164.592 154.761C161.105 156.837 157.082 157.917 152.989 157.875C148.747 157.838 144.587 156.737 140.914 154.681C137.241 152.624 134.18 149.681 132.029 146.138C130.024 142.897 128.871 139.23 128.67 135.457C128.479 132.564 128.906 129.664 129.926 126.938C130.945 124.212 132.533 121.719 134.592 119.616C136.651 117.512 139.136 115.843 141.891 114.713C144.647 113.583 147.613 113.016 150.605 113.047C156.832 113.11 162.803 115.457 167.315 119.616C171.828 123.774 174.547 129.434 174.924 135.457V135.457Z" fill="white"/>
<path d="M172.68 146.138C170.869 149.695 168.057 152.684 164.569 154.761C161.081 156.837 157.059 157.917 152.966 157.875C148.724 157.838 144.564 156.737 140.891 154.681C137.218 152.624 134.157 149.681 132.006 146.138C137.888 142.201 144.873 140.107 152.022 140.137C159.361 140.164 166.535 142.248 172.68 146.138V146.138Z" fill="#44AC67"/>
<path d="M158.939 134.936C162.808 131.089 162.555 124.768 158.373 120.82C154.191 116.871 147.664 116.789 143.795 120.636C139.925 124.484 140.179 130.804 144.361 134.753C148.543 138.702 155.069 138.784 158.939 134.936Z" fill="#44AC67"/>
<path d="M192.269 201.75H118.329C117.685 201.744 117.067 201.501 116.601 201.071C116.134 200.641 115.853 200.055 115.814 199.432L115.256 188.932C115.237 188.634 115.282 188.335 115.387 188.053C115.493 187.772 115.657 187.515 115.87 187.298C116.083 187.081 116.34 186.909 116.624 186.793C116.909 186.677 117.215 186.619 117.524 186.622H191.464C192.107 186.629 192.724 186.87 193.19 187.299C193.657 187.727 193.939 188.311 193.98 188.932L194.537 199.432C194.557 199.732 194.514 200.032 194.408 200.314C194.303 200.596 194.139 200.854 193.926 201.072C193.713 201.289 193.456 201.462 193.171 201.579C192.886 201.695 192.579 201.754 192.269 201.75V201.75Z" fill="white"/>
<path opacity="0.3" d="M169.63 180.825H138.747C138.101 180.82 137.48 180.577 137.011 180.146C136.543 179.714 136.261 179.126 136.224 178.5L136.108 176.25C136.088 175.951 136.131 175.651 136.236 175.369C136.342 175.086 136.506 174.828 136.719 174.611C136.932 174.393 137.189 174.221 137.474 174.104C137.759 173.987 138.066 173.929 138.376 173.933H169.251C169.895 173.939 170.512 174.182 170.979 174.612C171.446 175.042 171.727 175.627 171.766 176.25L171.89 178.5C171.909 178.799 171.865 179.098 171.76 179.38C171.655 179.661 171.491 179.919 171.279 180.137C171.067 180.354 170.812 180.528 170.528 180.646C170.244 180.765 169.939 180.826 169.63 180.825V180.825Z" fill="black"/>
<path opacity="0.3" d="M181.116 252.232H134.854C133.759 252.219 132.709 251.806 131.915 251.074C131.121 250.342 130.642 249.347 130.574 248.287L130.303 243.113C130.276 242.604 130.356 242.095 130.538 241.618C130.72 241.14 131.001 240.703 131.363 240.334C131.725 239.965 132.161 239.671 132.644 239.47C133.127 239.27 133.647 239.167 134.173 239.168H180.42C181.515 239.181 182.565 239.594 183.359 240.326C184.152 241.058 184.632 242.053 184.7 243.113L184.971 248.287C184.998 248.795 184.919 249.302 184.737 249.779C184.556 250.256 184.277 250.692 183.916 251.061C183.556 251.43 183.122 251.724 182.64 251.925C182.159 252.127 181.64 252.231 181.116 252.232V252.232Z" fill="black"/>
<path d="M193.624 227.145H119.676C119.032 227.137 118.416 226.894 117.949 226.464C117.483 226.034 117.201 225.45 117.16 224.827L116.603 214.327C116.584 214.028 116.628 213.729 116.734 213.447C116.84 213.166 117.004 212.908 117.217 212.691C117.429 212.473 117.686 212.301 117.971 212.184C118.255 212.066 118.562 212.007 118.871 212.01H192.811C193.455 212.016 194.073 212.259 194.539 212.689C195.006 213.119 195.287 213.705 195.327 214.327L195.892 224.827C195.91 225.126 195.864 225.425 195.758 225.707C195.652 225.988 195.488 226.245 195.275 226.462C195.063 226.679 194.807 226.852 194.523 226.969C194.238 227.087 193.933 227.147 193.624 227.145V227.145Z" fill="white"/>
<path d="M127.71 194.183C127.731 194.514 127.682 194.846 127.565 195.158C127.448 195.47 127.265 195.756 127.029 195.996C126.793 196.237 126.508 196.428 126.193 196.557C125.877 196.686 125.537 196.751 125.195 196.747C124.483 196.739 123.8 196.47 123.285 195.994C122.769 195.518 122.459 194.871 122.416 194.183C122.394 193.851 122.442 193.519 122.558 193.207C122.674 192.895 122.856 192.61 123.092 192.369C123.327 192.128 123.611 191.937 123.927 191.808C124.242 191.678 124.581 191.614 124.924 191.617C125.636 191.626 126.32 191.894 126.836 192.37C127.353 192.846 127.665 193.493 127.71 194.183V194.183Z" fill="#263238"/>
<path d="M135.86 194.183C135.883 194.514 135.834 194.846 135.718 195.158C135.602 195.47 135.42 195.755 135.185 195.996C134.949 196.237 134.665 196.428 134.349 196.557C134.034 196.687 133.695 196.751 133.352 196.747C132.64 196.741 131.957 196.473 131.441 195.996C130.925 195.52 130.615 194.872 130.574 194.183C130.551 193.851 130.6 193.519 130.716 193.207C130.832 192.895 131.014 192.61 131.249 192.369C131.485 192.128 131.769 191.937 132.084 191.808C132.4 191.678 132.739 191.614 133.081 191.617C133.794 191.624 134.477 191.892 134.993 192.369C135.509 192.845 135.819 193.493 135.86 194.183V194.183Z" fill="#263238"/>
<path d="M143.964 194.183C143.986 194.514 143.938 194.846 143.822 195.158C143.705 195.47 143.524 195.755 143.288 195.996C143.053 196.237 142.769 196.428 142.453 196.557C142.138 196.687 141.799 196.751 141.456 196.748C140.744 196.739 140.06 196.471 139.544 195.995C139.027 195.519 138.715 194.872 138.67 194.183C138.649 193.851 138.698 193.519 138.815 193.207C138.932 192.895 139.115 192.609 139.351 192.369C139.587 192.128 139.872 191.937 140.187 191.808C140.503 191.679 140.843 191.614 141.185 191.618C141.897 191.626 142.58 191.895 143.095 192.371C143.611 192.847 143.921 193.494 143.964 194.183Z" fill="#263238"/>
<path d="M152.13 194.183C152.151 194.513 152.102 194.845 151.985 195.156C151.869 195.468 151.687 195.753 151.452 195.994C151.217 196.234 150.933 196.425 150.618 196.555C150.303 196.685 149.964 196.75 149.622 196.748C148.91 196.739 148.226 196.471 147.71 195.995C147.193 195.519 146.881 194.872 146.836 194.183C146.815 193.852 146.864 193.52 146.981 193.209C147.097 192.897 147.279 192.612 147.514 192.372C147.749 192.131 148.033 191.94 148.348 191.81C148.663 191.68 149.002 191.615 149.344 191.618C150.056 191.626 150.74 191.894 151.256 192.37C151.773 192.846 152.085 193.493 152.13 194.183V194.183Z" fill="#263238"/>
<path d="M129.08 219.563C129.103 219.894 129.054 220.226 128.938 220.538C128.822 220.85 128.64 221.135 128.405 221.376C128.169 221.617 127.885 221.808 127.57 221.937C127.254 222.067 126.915 222.131 126.572 222.128C125.86 222.119 125.177 221.851 124.66 221.375C124.143 220.899 123.831 220.252 123.786 219.563C123.765 219.231 123.814 218.899 123.931 218.587C124.049 218.275 124.231 217.989 124.467 217.749C124.703 217.508 124.988 217.317 125.303 217.188C125.619 217.059 125.959 216.994 126.302 216.997C127.013 217.006 127.696 217.275 128.211 217.751C128.727 218.227 129.037 218.874 129.08 219.563Z" fill="#263238"/>
<path d="M137.215 219.563C137.236 219.893 137.187 220.225 137.07 220.536C136.954 220.848 136.772 221.133 136.537 221.374C136.302 221.614 136.018 221.805 135.703 221.935C135.388 222.065 135.049 222.13 134.707 222.128C133.995 222.119 133.311 221.851 132.795 221.375C132.278 220.899 131.966 220.252 131.921 219.563C131.898 219.231 131.947 218.899 132.063 218.587C132.179 218.275 132.361 217.99 132.596 217.749C132.832 217.508 133.116 217.317 133.431 217.188C133.747 217.059 134.086 216.994 134.429 216.998C135.141 217.006 135.825 217.274 136.341 217.75C136.858 218.226 137.17 218.873 137.215 219.563Z" fill="#263238"/>
<path d="M145.349 219.563C145.371 219.894 145.321 220.226 145.204 220.538C145.087 220.85 144.905 221.136 144.668 221.376C144.432 221.617 144.148 221.808 143.832 221.937C143.516 222.066 143.176 222.131 142.834 222.128C142.121 222.121 141.438 221.853 140.922 221.376C140.406 220.9 140.096 220.252 140.055 219.563C140.033 219.231 140.081 218.899 140.197 218.587C140.314 218.275 140.495 217.99 140.731 217.749C140.966 217.508 141.25 217.317 141.566 217.188C141.881 217.059 142.221 216.994 142.563 216.998C143.276 217.006 143.959 217.274 144.476 217.75C144.992 218.226 145.304 218.873 145.349 219.563Z" fill="#263238"/>
<path d="M153.477 219.563C153.499 219.894 153.451 220.226 153.334 220.538C153.218 220.85 153.037 221.135 152.801 221.376C152.566 221.617 152.281 221.808 151.966 221.937C151.651 222.067 151.311 222.131 150.969 222.128C150.256 222.119 149.573 221.851 149.056 221.375C148.54 220.899 148.227 220.252 148.183 219.563C148.161 219.231 148.211 218.899 148.328 218.587C148.445 218.275 148.627 217.989 148.863 217.749C149.099 217.508 149.384 217.317 149.7 217.188C150.016 217.059 150.355 216.994 150.698 216.997C151.411 217.004 152.094 217.272 152.61 217.749C153.126 218.225 153.436 218.873 153.477 219.563Z" fill="#263238"/>
<path d="M161.611 219.563C161.634 219.894 161.585 220.226 161.469 220.538C161.353 220.85 161.171 221.135 160.936 221.376C160.7 221.617 160.416 221.808 160.101 221.937C159.786 222.067 159.446 222.131 159.104 222.128C158.391 222.119 157.708 221.851 157.191 221.375C156.674 220.899 156.362 220.252 156.317 219.563C156.296 219.232 156.345 218.9 156.462 218.589C156.579 218.277 156.76 217.992 156.996 217.752C157.231 217.511 157.515 217.32 157.829 217.19C158.144 217.06 158.483 216.995 158.825 216.998C159.538 217.006 160.221 217.274 160.738 217.75C161.255 218.226 161.567 218.873 161.611 219.563Z" fill="#263238"/>
<path d="M169.746 219.563C169.767 219.894 169.718 220.226 169.6 220.538C169.483 220.85 169.301 221.136 169.065 221.376C168.829 221.617 168.544 221.808 168.228 221.937C167.913 222.066 167.573 222.131 167.23 222.128C166.518 222.119 165.836 221.85 165.321 221.374C164.805 220.898 164.495 220.251 164.452 219.563C164.429 219.231 164.478 218.899 164.594 218.587C164.71 218.275 164.892 217.99 165.127 217.749C165.363 217.508 165.647 217.317 165.962 217.188C166.278 217.059 166.617 216.994 166.959 216.998C167.672 217.006 168.355 217.274 168.872 217.75C169.389 218.226 169.701 218.873 169.746 219.563V219.563Z" fill="#263238"/>
<path d="M257.742 132.465C257.936 132.75 258.036 132.9 258.16 133.103L258.508 133.658C258.733 134.033 258.934 134.407 259.127 134.775C259.514 135.525 259.901 136.275 260.211 137.025C260.86 138.515 261.418 140.04 261.883 141.592C262.82 144.66 263.437 147.811 263.725 150.997L263.779 151.59C263.786 151.71 263.786 151.83 263.779 151.95V152.347C263.792 152.869 263.761 153.391 263.686 153.907C263.538 154.865 263.278 155.804 262.912 156.705C262.232 158.315 261.332 159.828 260.234 161.205C258.187 163.745 255.758 165.972 253.028 167.812L250.892 165.39C252.836 163.263 254.557 160.954 256.031 158.497C256.695 157.383 257.215 156.194 257.579 154.957C257.727 154.434 257.813 153.895 257.835 153.352C257.859 153.121 257.859 152.887 257.835 152.655V152.497C257.843 152.428 257.843 152.357 257.835 152.287L257.742 151.762C257.244 148.967 256.541 146.21 255.637 143.513C255.188 142.17 254.638 140.872 254.089 139.605C253.818 138.967 253.508 138.345 253.199 137.745L252.719 136.86L252.479 136.447L252.278 136.118L257.742 132.465Z" fill="#803E3C"/>
<path d="M250.544 167.828L253.346 173.565L255.567 168.712C255.567 168.712 253.593 164.513 250.923 164.903L250.544 167.828Z" fill="#7F3E3B"/>
<path d="M255.35 173.85L257.579 170.31L255.567 168.712L253.346 173.565L255.35 173.85Z" fill="#7F3E3B"/>
<path d="M242.75 306.165C243.329 306.151 243.905 306.076 244.468 305.94C244.496 305.932 244.522 305.916 244.542 305.895C244.563 305.874 244.577 305.848 244.584 305.82C244.589 305.791 244.585 305.762 244.572 305.735C244.56 305.708 244.54 305.686 244.514 305.67C244.29 305.528 242.324 304.298 241.565 304.628C241.481 304.666 241.409 304.724 241.356 304.798C241.303 304.872 241.271 304.958 241.263 305.048C241.24 305.183 241.251 305.322 241.296 305.453C241.34 305.584 241.417 305.702 241.519 305.798C241.87 306.06 242.307 306.191 242.75 306.165V306.165ZM244.027 305.723C242.904 305.948 242.053 305.91 241.705 305.618C241.634 305.549 241.581 305.464 241.553 305.371C241.525 305.278 241.521 305.18 241.542 305.085C241.542 304.958 241.62 304.92 241.674 304.898C242.092 304.717 243.229 305.25 244.027 305.723V305.723Z" fill="#44AC67"/>
<path d="M244.429 305.94H244.506C244.53 305.925 244.549 305.905 244.562 305.882C244.576 305.858 244.583 305.832 244.584 305.805C244.584 305.73 244.584 303.922 243.872 303.315C243.784 303.239 243.681 303.182 243.569 303.148C243.457 303.115 243.338 303.105 243.222 303.12C243.1 303.121 242.981 303.162 242.887 303.237C242.793 303.312 242.728 303.417 242.703 303.532C242.556 304.245 243.732 305.595 244.352 305.94H244.429ZM243.322 303.397C243.385 303.396 243.447 303.406 243.506 303.428C243.564 303.45 243.618 303.483 243.663 303.525C244.071 304.108 244.282 304.8 244.266 305.505C243.647 305.025 242.912 304.005 243.005 303.577C243.005 303.51 243.059 303.42 243.253 303.397H243.322Z" fill="#44AC67"/>
<path d="M235.443 303.105C235.461 303.083 235.473 303.057 235.477 303.029C235.482 303.001 235.478 302.973 235.467 302.947C235.456 302.92 235.438 302.898 235.414 302.881C235.391 302.864 235.364 302.853 235.335 302.85C235.018 302.85 232.239 302.723 231.604 303.382V303.427C231.552 303.492 231.518 303.569 231.506 303.651C231.493 303.733 231.503 303.816 231.535 303.892C231.576 304.021 231.649 304.138 231.747 304.234C231.846 304.329 231.967 304.4 232.1 304.44C232.997 304.71 234.584 303.727 235.451 303.12L235.443 303.105ZM231.836 303.577C232.185 303.217 233.717 303.12 234.863 303.135C233.663 303.93 232.665 304.305 232.162 304.155C232.074 304.129 231.994 304.083 231.929 304.02C231.864 303.957 231.817 303.88 231.79 303.795C231.774 303.766 231.766 303.734 231.766 303.701C231.766 303.669 231.774 303.636 231.79 303.607L231.836 303.577Z" fill="#44AC67"/>
<path d="M235.443 303.105C235.455 303.082 235.461 303.056 235.461 303.03C235.461 303.004 235.455 302.978 235.443 302.955C235.404 302.895 234.538 301.455 233.516 301.155C233.369 301.113 233.215 301.101 233.063 301.119C232.912 301.137 232.765 301.185 232.633 301.26C232.262 301.47 232.239 301.717 232.285 301.875C232.486 302.572 234.46 303.187 235.312 303.18C235.338 303.18 235.364 303.172 235.388 303.159C235.411 303.146 235.43 303.127 235.443 303.105ZM232.664 301.605C232.708 301.563 232.758 301.528 232.812 301.5C232.907 301.441 233.015 301.403 233.127 301.389C233.239 301.374 233.354 301.384 233.462 301.417C234.135 301.59 234.762 302.43 235.048 302.842C234.127 302.745 232.726 302.197 232.61 301.777C232.6 301.746 232.6 301.712 232.61 301.68C232.62 301.648 232.638 301.619 232.664 301.597V301.605Z" fill="#44AC67"/>
<path d="M243.965 110.497C243.191 114.247 241.519 122.355 244.205 124.845C244.205 124.845 243.152 128.595 236.008 128.595C228.144 128.595 232.254 124.845 232.254 124.845C236.542 123.855 236.434 120.765 235.683 117.87L243.965 110.497Z" fill="#7F3E3B"/>
<path d="M230.869 101.707C230.913 101.714 230.957 101.714 231.001 101.707C231.037 101.69 231.07 101.666 231.097 101.636C231.124 101.606 231.145 101.571 231.158 101.533C231.17 101.496 231.176 101.456 231.173 101.416C231.17 101.377 231.158 101.338 231.14 101.302C230.932 100.875 230.621 100.502 230.233 100.214C229.845 99.9273 229.391 99.7346 228.911 99.6525C228.83 99.6459 228.75 99.6695 228.687 99.7183C228.623 99.7671 228.582 99.8374 228.57 99.915C228.561 99.9935 228.585 100.072 228.636 100.134C228.686 100.196 228.76 100.236 228.841 100.245V100.245C229.221 100.316 229.577 100.473 229.881 100.704C230.186 100.935 230.429 101.232 230.59 101.572C230.62 101.617 230.662 101.653 230.711 101.676C230.76 101.7 230.814 101.711 230.869 101.707Z" fill="#263238"/>
<path d="M228.524 105C227.914 106.095 227.154 107.104 226.264 108C226.505 108.214 226.791 108.374 227.102 108.47C227.414 108.566 227.743 108.595 228.067 108.555L228.524 105Z" fill="#630F0F"/>
<path d="M229.104 104.152C229.042 104.655 228.709 105.03 228.376 104.993C228.044 104.955 227.811 104.512 227.873 104.01C227.935 103.507 228.268 103.132 228.647 103.17C229.027 103.207 229.158 103.65 229.104 104.152Z" fill="#263238"/>
<path d="M228.748 103.215L227.556 102.75C227.556 102.75 228.059 103.74 228.748 103.215Z" fill="#263238"/>
<path d="M242.277 301.68L235.962 303.105L232.123 289.035L238.438 287.61L242.277 301.68Z" fill="#7F3E3B"/>
<path d="M251.968 305.79H245.49L245.993 291.247H252.479L251.968 305.79Z" fill="#7F3E3B"/>
<path d="M244.971 305.062H252.255C252.381 305.061 252.503 305.105 252.599 305.185C252.694 305.265 252.756 305.376 252.773 305.497L253.601 311.077C253.618 311.219 253.603 311.361 253.558 311.497C253.514 311.632 253.44 311.756 253.342 311.862C253.244 311.968 253.124 312.052 252.99 312.109C252.856 312.167 252.711 312.196 252.564 312.195C250.026 312.157 248.803 312.007 245.598 312.007C243.625 312.007 240.745 312.21 238.029 312.21C235.312 312.21 235.157 309.6 236.295 309.367C241.372 308.302 242.177 306.847 243.888 305.452C244.19 305.202 244.574 305.064 244.971 305.062Z" fill="#263238"/>
<path d="M235.404 302.168L242.022 299.22C242.134 299.168 242.263 299.158 242.382 299.191C242.502 299.224 242.605 299.298 242.672 299.4L245.838 304.14C245.912 304.262 245.959 304.398 245.975 304.538C245.992 304.679 245.977 304.821 245.934 304.956C245.89 305.091 245.818 305.216 245.721 305.322C245.625 305.428 245.506 305.513 245.374 305.572C243.052 306.562 241.875 306.93 238.965 308.228C237.177 309.023 233.547 310.852 231.085 311.977C228.624 313.102 227.355 310.77 228.284 310.095C232.44 307.095 233.632 304.943 234.584 302.985C234.745 302.624 235.037 302.334 235.404 302.168V302.168Z" fill="#263238"/>
<path opacity="0.2" d="M232.123 289.035L234.181 296.58L240.42 294.863L238.446 287.61L232.123 289.035Z" fill="black"/>
<path opacity="0.2" d="M252.479 291.247H245.993L245.737 298.747H252.223L252.479 291.247Z" fill="black"/>
<path d="M255.42 126.27C258.114 126.848 260.993 136.23 260.993 136.23L253.377 144.083C253.377 144.083 247.053 135.263 248.346 132.023C249.654 128.64 252.208 125.595 255.42 126.27Z" fill="#263238"/>
<path opacity="0.4" d="M251.117 132.247C249.754 131.04 248.833 131.4 248.206 132.36C247.587 135.15 251.256 140.992 252.734 143.205C253.415 140.565 254.197 135 251.117 132.247Z" fill="black"/>
<path d="M221.295 126.457C221.295 126.457 218.199 127.507 224.391 164.37H250.707C250.265 153.99 250.25 147.585 255.351 126.27C251.663 125.533 247.925 125.057 244.166 124.845C240.188 124.567 236.194 124.567 232.216 124.845C227.115 125.302 221.295 126.457 221.295 126.457Z" fill="#263238"/>
<path opacity="0.4" d="M221.055 140.602C221.225 142.395 221.449 144.413 221.744 146.693C223.903 144.81 225.668 139.455 225.018 136.335C223.475 137.548 222.138 138.988 221.055 140.602Z" fill="black"/>
<path d="M223.872 135C222.452 138.463 220.853 141.855 219.081 145.162C217.329 148.589 215.257 151.853 212.889 154.912L212.394 155.505L212.146 155.797C212.061 155.895 211.991 155.985 211.86 156.12C211.394 156.612 210.875 157.055 210.312 157.44C209.316 158.108 208.226 158.633 207.076 159C205.07 159.621 202.988 159.979 200.884 160.065C196.944 160.217 193.001 159.876 189.15 159.052L189.576 155.902C191.356 155.902 193.222 155.902 194.994 155.76C196.774 155.675 198.548 155.485 200.304 155.19C201.935 154.943 203.53 154.51 205.056 153.9C205.672 153.645 206.248 153.307 206.767 152.895C206.964 152.734 207.144 152.553 207.301 152.355C207.301 152.355 207.394 152.235 207.455 152.152L207.634 151.905L207.997 151.41C209.939 148.503 211.67 145.468 213.175 142.327C214.723 139.14 216.271 135.832 217.688 132.577L223.872 135Z" fill="#803E3C"/>
<path d="M221.294 126.458C218.067 127.208 214.104 135.787 214.104 135.787L220.791 145.312C220.791 145.312 229.7 134.445 228.64 131.13C227.556 127.672 225.234 125.528 221.294 126.458Z" fill="#263238"/>
<path d="M191.434 156.382L185.853 153.885L185.296 159.262C185.296 159.262 189.94 160.59 192.262 159.262L191.434 156.382Z" fill="#7F3E3B"/>
<path d="M182.517 153.345L181.983 157.44L185.296 159.263L185.853 153.885L182.517 153.345Z" fill="#7F3E3B"/>
<path d="M246.767 104.52C245.582 110.647 245.219 113.272 241.596 116.055C236.178 120.24 228.632 117.495 227.904 111.15C227.239 105.435 229.282 96.375 235.838 94.65C237.282 94.2639 238.804 94.2428 240.259 94.5886C241.714 94.9343 243.053 95.6355 244.149 96.6252C245.245 97.6149 246.061 98.8602 246.519 100.242C246.977 101.624 247.062 103.097 246.767 104.52V104.52Z" fill="#7F3E3B"/>
<path d="M232.873 105.81C232.51 108.937 232.37 117.06 239.46 117.315C248.137 117.622 250.737 110.437 249.963 107.565C254.484 104.002 255.134 97.875 250.056 93.1875C244.979 88.5 233.802 91.1175 230.706 95.685C226.782 101.347 232.873 105.81 232.873 105.81Z" fill="#263238"/>
<path d="M241.565 95.01C241.147 91.71 241.473 89.4375 244.661 89.4375C247.85 89.4375 252.2 90.555 253.795 93.7125C255.389 96.87 255.521 101.812 251.07 101.31C246.62 100.807 242.068 98.955 241.565 95.01Z" fill="#44AC67"/>
<path d="M246.503 94.215C245.729 90.285 249.359 79.215 258.175 78.465C262.262 78.1275 264.151 82.3875 262.045 83.0925C265.915 83.0475 268.392 88.005 264.785 88.7475C267.634 90.5175 266.929 94.1475 262.866 95.9325C259.839 97.2825 247.548 99.66 246.503 94.215Z" fill="#263238"/>
<path d="M255.923 98.4375C253.083 98.4375 250.118 98.0325 248.276 96.84C247.761 96.5391 247.327 96.1237 247.011 95.6281C246.695 95.1324 246.505 94.5709 246.457 93.99C246.455 93.9407 246.472 93.8923 246.505 93.8548C246.538 93.8172 246.585 93.7931 246.635 93.7875C246.661 93.7844 246.687 93.7864 246.712 93.7936C246.736 93.8007 246.759 93.8128 246.779 93.829C246.799 93.8453 246.815 93.8653 246.826 93.8879C246.837 93.9104 246.843 93.935 246.844 93.96C246.891 94.4842 247.064 94.9904 247.351 95.4374C247.637 95.8844 248.029 96.2596 248.493 96.5325C251.999 98.7825 260.103 98.0325 262.626 97.2825C264.809 96.5925 266.287 95.25 266.581 93.705C266.673 93.138 266.601 92.5576 266.372 92.028C266.144 91.4984 265.769 91.0405 265.289 90.705C265.27 90.6882 265.255 90.6678 265.245 90.6453C265.235 90.6227 265.23 90.5983 265.23 90.5737C265.23 90.5491 265.235 90.5248 265.245 90.5022C265.255 90.4797 265.27 90.4593 265.289 90.4425C265.325 90.4081 265.373 90.3889 265.424 90.3889C265.475 90.3889 265.523 90.4081 265.56 90.4425C266.1 90.8245 266.52 91.3445 266.773 91.9445C267.026 92.5444 267.101 93.2007 266.991 93.84C266.674 95.5275 265.103 96.9675 262.781 97.7025C260.54 98.2498 258.233 98.4971 255.923 98.4375V98.4375Z" fill="#263238"/>
<path d="M230.9 105C230.179 105.98 229.882 107.193 230.072 108.382C230.327 109.957 231.906 110.062 233.051 109.057C234.197 108.052 235.195 106.237 234.352 104.932C234.164 104.651 233.905 104.42 233.6 104.262C233.294 104.105 232.952 104.026 232.606 104.032C232.26 104.039 231.922 104.132 231.623 104.301C231.324 104.47 231.075 104.711 230.9 105Z" fill="#7F3E3B"/>
<path d="M231.341 164.37C231.341 164.37 235.102 207.487 239.011 231.787C242.161 251.415 244.654 297.292 244.654 297.292H253.493C253.493 297.292 256.635 252.787 255.041 233.377C250.993 184.252 260.025 180.247 250.729 164.377L231.341 164.37Z" fill="#44AC67"/>
<path opacity="0.4" d="M242.471 180.667C238.968 184.23 236.141 188.363 234.12 192.877C235.149 202.567 236.372 213.322 237.672 222.742C243.008 209.357 244.662 194.858 242.471 180.667V180.667Z" fill="black"/>
<path d="M225.157 164.1C225.157 164.1 216.991 211.193 215.706 232.418C218.91 252.045 232.022 293.535 232.022 293.535L240.064 290.707C240.064 290.707 235.613 245.467 230.776 233.085C241.666 197.557 249.669 188.572 247.339 164.37C241.759 164.37 225.157 164.1 225.157 164.1Z" fill="#44AC67"/>
<path d="M230.946 295.605L241.813 292.747L241.194 288.548L229.561 291.6L230.946 295.605Z" fill="#263238"/>
<path d="M243.438 297.465H254.7L255.288 293.64L243.376 293.25L243.438 297.465Z" fill="#263238"/>
<path d="M251.116 162.87L252.301 165.157C252.394 165.337 252.177 165.517 251.875 165.517H224.259C224.026 165.517 223.825 165.405 223.81 165.255L223.57 163.005C223.57 162.847 223.763 162.712 224.019 162.712H250.683C250.763 162.702 250.845 162.711 250.92 162.738C250.996 162.766 251.063 162.811 251.116 162.87V162.87Z" fill="#44AC67"/>
<path opacity="0.5" d="M251.116 162.87L252.301 165.157C252.394 165.337 252.177 165.517 251.875 165.517H224.259C224.026 165.517 223.825 165.405 223.81 165.255L223.57 163.005C223.57 162.847 223.763 162.712 224.019 162.712H250.683C250.763 162.702 250.845 162.711 250.92 162.738C250.996 162.766 251.063 162.811 251.116 162.87V162.87Z" fill="black"/>
<path d="M247.533 165.75H248.245C248.392 165.75 248.5 165.675 248.492 165.592L248.152 162.592C248.152 162.502 248.02 162.435 247.881 162.435H247.161C247.022 162.435 246.914 162.502 246.921 162.592L247.254 165.592C247.27 165.69 247.393 165.75 247.533 165.75Z" fill="#44AC67"/>
<path d="M237.951 143.91C237.865 143.909 237.783 143.881 237.714 143.831C237.646 143.781 237.596 143.712 237.572 143.632C235.048 134.587 229.832 127.132 227.301 126.007C227.104 125.89 226.868 125.853 226.643 125.902C226.596 125.926 226.545 125.941 226.492 125.945C226.439 125.949 226.386 125.942 226.336 125.925C226.286 125.909 226.24 125.882 226.201 125.848C226.162 125.813 226.131 125.771 226.109 125.725C226.088 125.678 226.076 125.628 226.075 125.576C226.074 125.525 226.084 125.474 226.105 125.427C226.125 125.38 226.155 125.337 226.193 125.301C226.231 125.266 226.276 125.238 226.325 125.22C226.537 125.145 226.763 125.115 226.987 125.133C227.212 125.151 227.43 125.217 227.626 125.325C230.304 126.555 235.598 133.905 238.245 143.152C240.141 143.152 243.067 142.905 243.779 142.845C244.661 141.825 251.147 133.965 248.725 125.362C248.711 125.315 248.707 125.266 248.713 125.217C248.719 125.168 248.735 125.121 248.76 125.078C248.786 125.036 248.82 124.998 248.86 124.968C248.9 124.939 248.947 124.917 248.996 124.905C249.094 124.88 249.199 124.893 249.287 124.942C249.376 124.991 249.441 125.072 249.468 125.167C252.169 134.737 244.336 143.37 244.251 143.452C244.221 143.489 244.183 143.519 244.141 143.541C244.098 143.563 244.051 143.576 244.003 143.58C243.965 143.58 240.102 143.91 237.951 143.91Z" fill="#44AC67"/>
<path d="M250.776 149.205C246.558 141.547 244.832 141.007 244.081 138.547C244.65 137.172 245.462 135.903 246.48 134.797C245.97 134.655 244.871 134.445 244.158 134.317C244.236 133.98 244.321 133.65 244.398 133.327C243.624 133.243 242.84 133.279 242.076 133.432V132.682C241.093 132.475 240.084 132.412 239.081 132.495C239.169 132.85 239.254 133.21 239.336 133.575C238.562 133.717 237.386 133.95 236.821 134.107C237.919 135.312 238.725 136.74 239.182 138.285C236.906 142.073 228.067 166.418 242.448 168.285C256.829 170.153 254.987 156.87 250.776 149.205Z" fill="#44AC67"/>
<path opacity="0.4" d="M250.776 149.205C246.558 141.547 244.832 141.007 244.081 138.547C244.65 137.172 245.462 135.903 246.48 134.797C245.97 134.655 244.871 134.445 244.158 134.317C244.236 133.98 244.321 133.65 244.398 133.327C243.624 133.243 242.84 133.279 242.076 133.432V132.682C241.093 132.475 240.084 132.412 239.081 132.495C239.169 132.85 239.254 133.21 239.336 133.575C238.562 133.717 237.386 133.95 236.821 134.107C237.919 135.312 238.725 136.74 239.182 138.285C236.906 142.073 228.067 166.418 242.448 168.285C256.829 170.153 254.987 156.87 250.776 149.205Z" fill="white"/>
<path d="M238.593 137.557C238.503 137.944 238.464 138.339 238.477 138.735C238.477 139.012 239.251 139.2 240.11 139.282C240.969 139.365 244.576 139.5 244.46 139.11C244.344 138.72 244.638 138.187 244.653 137.857C244.669 137.527 243.221 137.512 242.006 137.557C240.791 137.602 238.833 137.137 238.593 137.557Z" fill="#44AC67"/>
<path d="M230.226 165.75H230.938C231.078 165.75 231.186 165.675 231.178 165.592L230.846 162.592C230.846 162.502 230.714 162.435 230.567 162.435H229.878C229.739 162.435 229.63 162.502 229.638 162.592L229.971 165.592C229.955 165.69 230.079 165.75 230.226 165.75Z" fill="#44AC67"/>
</svg>
