<svg width="107" height="20" viewBox="0 0 107 20" fill="none" xmlns="http://www.w3.org/2000/svg">
<path d="M20 7.72075L12.7344 7.25196L9.99219 0.373047L7.24996 7.25196L0 7.72075L5.56246 12.4551L3.73434 19.627L9.99219 15.666L16.25 19.627L14.4219 12.4551L20 7.72075Z" fill="#FFD400"/>
<path d="M14.4219 12.4551L16.25 19.627L9.99219 15.666V0.373047L12.7344 7.25196L20 7.72075L14.4219 12.4551Z" fill="#FDBF00"/>
<path d="M49 7.72075L41.7344 7.25196L38.9922 0.373047L36.25 7.25196L29 7.72075L34.5625 12.4551L32.7343 19.627L38.9922 15.666L45.25 19.627L43.4219 12.4551L49 7.72075Z" fill="#FFD400"/>
<path d="M43.4219 12.4551L45.25 19.627L38.9922 15.666V0.373047L41.7344 7.25196L49 7.72075L43.4219 12.4551Z" fill="#FDBF00"/>
<path d="M78 7.72075L70.7344 7.25196L67.9922 0.373047L65.25 7.25196L58 7.72075L63.5625 12.4551L61.7343 19.627L67.9922 15.666L74.25 19.627L72.4219 12.4551L78 7.72075Z" fill="#FFD400"/>
<path d="M72.4219 12.4551L74.25 19.627L67.9922 15.666V0.373047L70.7344 7.25196L78 7.72075L72.4219 12.4551Z" fill="#FDBF00"/>
<path d="M107 7.72075L99.7344 7.25196L96.9922 0.373047L94.25 7.25196L87 7.72075L92.5625 12.4551L90.7343 19.627L96.9922 15.666L103.25 19.627L101.422 12.4551L107 7.72075Z" fill="#FFD400"/>
<path d="M101.422 12.4551L103.25 19.627L96.9922 15.666V0.373047L99.7344 7.25196L107 7.72075L101.422 12.4551Z" fill="#FDBF00"/>
</svg>
