<svg width="184" height="56" viewBox="0 0 184 56" fill="none" xmlns="http://www.w3.org/2000/svg">
<g clip-path="url(#clip0)">
<path d="M44.4275 19.3917C42.8483 19.3917 41.4587 20.0562 40.4358 21.0917C36.6754 18.45 31.6046 16.75 25.9858 16.5687L28.9045 3.22291L38.1983 5.33957C38.1983 7.64791 40.0525 9.53332 42.3275 9.53332C44.6462 9.53332 46.5108 7.59791 46.5108 5.28749C46.5108 2.97707 44.6587 1.04166 42.3296 1.04166C40.7066 1.04166 39.3066 2.03541 38.6087 3.39374L28.3441 1.08541C27.8275 0.945823 27.3212 1.32082 27.1837 1.84582L23.9796 16.5583C18.4045 16.7937 13.3879 18.4917 9.61496 21.1354C8.59205 20.0562 7.1483 19.3917 5.56913 19.3917C-0.289204 19.3917 -2.20795 27.3687 3.15663 30.0958C2.96705 30.9396 2.88163 31.8396 2.88163 32.7375C2.88163 41.6979 12.8295 48.9583 25.0441 48.9583C37.3108 48.9583 47.2587 41.6979 47.2587 32.7375C47.2587 31.8396 47.165 30.8979 46.9337 30.0521C52.19 27.3146 50.2546 19.3958 44.4275 19.3917V19.3917ZM11.6691 30.6625C11.6691 28.3104 13.5233 26.4167 15.8525 26.4167C18.1275 26.4167 19.9837 28.2979 19.9837 30.6625C19.9837 32.9729 18.1295 34.8562 15.8525 34.8562C13.5337 34.8667 11.6691 32.9729 11.6691 30.6625V30.6625ZM34.2504 40.6583C30.415 44.55 19.592 44.55 15.7545 40.6583C15.3316 40.2833 15.3316 39.6208 15.7545 39.1937C16.1233 38.8187 16.7775 38.8187 17.1462 39.1937C20.0754 42.2417 29.7921 42.2937 32.8483 39.1937C33.2171 38.8187 33.8712 38.8187 34.24 39.1937C34.6712 39.6229 34.6712 40.2854 34.2504 40.6583V40.6583ZM34.165 34.8646C31.89 34.8646 30.0358 32.9833 30.0358 30.675C30.0358 28.3229 31.89 26.4292 34.165 26.4292C36.4837 26.4292 38.3483 28.3104 38.3483 30.675C38.3379 32.9729 36.4837 34.8646 34.165 34.8646Z" fill="#FF5722"/>
</g>
<path d="M82.696 42L76.936 31.992H73.804V42H69.7V16.98H78.34C80.26 16.98 81.88 17.316 83.2 17.988C84.544 18.66 85.54 19.56 86.188 20.688C86.86 21.816 87.196 23.076 87.196 24.468C87.196 26.1 86.716 27.588 85.756 28.932C84.82 30.252 83.368 31.152 81.4 31.632L87.592 42H82.696ZM73.804 28.716H78.34C79.876 28.716 81.028 28.332 81.796 27.564C82.588 26.796 82.984 25.764 82.984 24.468C82.984 23.172 82.6 22.164 81.832 21.444C81.064 20.7 79.9 20.328 78.34 20.328H73.804V28.716ZM110.626 31.596C110.626 32.34 110.578 33.012 110.482 33.612H95.3261C95.4461 35.196 96.0341 36.468 97.0901 37.428C98.1461 38.388 99.4421 38.868 100.978 38.868C103.186 38.868 104.746 37.944 105.658 36.096H110.086C109.486 37.92 108.394 39.42 106.81 40.596C105.25 41.748 103.306 42.324 100.978 42.324C99.0821 42.324 97.3781 41.904 95.8661 41.064C94.3781 40.2 93.2021 39 92.3381 37.464C91.4981 35.904 91.0781 34.104 91.0781 32.064C91.0781 30.024 91.4861 28.236 92.3021 26.7C93.1421 25.14 94.3061 23.94 95.7941 23.1C97.3061 22.26 99.0341 21.84 100.978 21.84C102.85 21.84 104.518 22.248 105.982 23.064C107.446 23.88 108.586 25.032 109.402 26.52C110.218 27.984 110.626 29.676 110.626 31.596ZM106.342 30.3C106.318 28.788 105.778 27.576 104.722 26.664C103.666 25.752 102.358 25.296 100.798 25.296C99.3821 25.296 98.1701 25.752 97.1621 26.664C96.1541 27.552 95.5541 28.764 95.3621 30.3H106.342ZM113.297 31.992C113.297 30 113.705 28.236 114.521 26.7C115.361 25.164 116.489 23.976 117.905 23.136C119.345 22.272 120.941 21.84 122.693 21.84C123.989 21.84 125.261 22.128 126.509 22.704C127.781 23.256 128.789 24 129.533 24.936V15.36H133.673V42H129.533V39.012C128.861 39.972 127.925 40.764 126.725 41.388C125.549 42.012 124.193 42.324 122.657 42.324C120.929 42.324 119.345 41.892 117.905 41.028C116.489 40.14 115.361 38.916 114.521 37.356C113.705 35.772 113.297 33.984 113.297 31.992ZM129.533 32.064C129.533 30.696 129.245 29.508 128.669 28.5C128.117 27.492 127.385 26.724 126.473 26.196C125.561 25.668 124.577 25.404 123.521 25.404C122.465 25.404 121.481 25.668 120.569 26.196C119.657 26.7 118.913 27.456 118.337 28.464C117.785 29.448 117.509 30.624 117.509 31.992C117.509 33.36 117.785 34.56 118.337 35.592C118.913 36.624 119.657 37.416 120.569 37.968C121.505 38.496 122.489 38.76 123.521 38.76C124.577 38.76 125.561 38.496 126.473 37.968C127.385 37.44 128.117 36.672 128.669 35.664C129.245 34.632 129.533 33.432 129.533 32.064ZM137.695 31.992C137.695 30 138.103 28.236 138.919 26.7C139.759 25.164 140.887 23.976 142.303 23.136C143.743 22.272 145.339 21.84 147.091 21.84C148.387 21.84 149.659 22.128 150.907 22.704C152.179 23.256 153.187 24 153.931 24.936V15.36H158.071V42H153.931V39.012C153.259 39.972 152.323 40.764 151.123 41.388C149.947 42.012 148.591 42.324 147.055 42.324C145.327 42.324 143.743 41.892 142.303 41.028C140.887 40.14 139.759 38.916 138.919 37.356C138.103 35.772 137.695 33.984 137.695 31.992ZM153.931 32.064C153.931 30.696 153.643 29.508 153.067 28.5C152.515 27.492 151.783 26.724 150.871 26.196C149.959 25.668 148.975 25.404 147.919 25.404C146.863 25.404 145.879 25.668 144.967 26.196C144.055 26.7 143.311 27.456 142.735 28.464C142.183 29.448 141.907 30.624 141.907 31.992C141.907 33.36 142.183 34.56 142.735 35.592C143.311 36.624 144.055 37.416 144.967 37.968C145.903 38.496 146.887 38.76 147.919 38.76C148.975 38.76 149.959 38.496 150.871 37.968C151.783 37.44 152.515 36.672 153.067 35.664C153.643 34.632 153.931 33.432 153.931 32.064ZM165.55 19.536C164.806 19.536 164.182 19.284 163.678 18.78C163.174 18.276 162.922 17.652 162.922 16.908C162.922 16.164 163.174 15.54 163.678 15.036C164.182 14.532 164.806 14.28 165.55 14.28C166.27 14.28 166.882 14.532 167.386 15.036C167.89 15.54 168.142 16.164 168.142 16.908C168.142 17.652 167.89 18.276 167.386 18.78C166.882 19.284 166.27 19.536 165.55 19.536ZM167.566 22.164V42H163.462V22.164H167.566ZM177.742 25.512V36.492C177.742 37.236 177.91 37.776 178.246 38.112C178.606 38.424 179.206 38.58 180.046 38.58H182.566V42H179.326C177.478 42 176.062 41.568 175.078 40.704C174.094 39.84 173.602 38.436 173.602 36.492V25.512H171.262V22.164H173.602V17.232H177.742V22.164H182.566V25.512H177.742Z" fill="#8F8F8F"/>
<defs>
<clipPath id="clip0">
<rect width="50" height="50" fill="white"/>
</clipPath>
</defs>
</svg>
