<svg width="506" height="324" viewBox="0 0 506 324" fill="none" xmlns="http://www.w3.org/2000/svg">
<path d="M483.033 308.594C476.263 322.042 120.848 320.913 121.387 308.593C128.157 295.146 483.572 296.275 483.033 308.594Z" fill="#D0CDE1"/>
<path d="M396.56 19.7883H336.901V74.8746H396.56V19.7883Z" fill="#2F2E41"/>
<path d="M305.818 35.298H134.861V186.652H305.818V35.298Z" fill="#3F3D56"/>
<path d="M254.43 60.4345H186.248V69.5264H254.43V60.4345Z" fill="white"/>
<path d="M205.55 81.8273H158.173V87.1754H205.55V81.8273Z" fill="white"/>
<path d="M243.652 117.125H196.275V122.473H243.652V117.125Z" fill="white"/>
<path d="M281.753 81.8273H234.377V87.1754H281.753V81.8273Z" fill="#44AC67"/>
<path d="M388.038 50.8078H344.922V53.2838H388.038V50.8078Z" fill="#44AC67"/>
<path d="M387.536 56.255H344.421V58.731H387.536V56.255Z" fill="#44AC67"/>
<path d="M388.038 61.7022H344.922V64.1782H388.038V61.7022Z" fill="#44AC67"/>
<path d="M388.038 32.6239H344.922V35.0999H388.038V32.6239Z" fill="#44AC67"/>
<path d="M387.536 38.0712H344.421V40.5472H387.536V38.0712Z" fill="#44AC67"/>
<path d="M388.038 43.5184H344.922V45.9944H388.038V43.5184Z" fill="#44AC67"/>
<path d="M413.606 37.9721H353.947V93.0584H413.606V37.9721Z" fill="#3F3D56"/>
<path d="M405.083 68.9916H361.968V71.4676H405.083V68.9916Z" fill="#44AC67"/>
<path d="M404.582 74.4388H361.467V76.9149H404.582V74.4388Z" fill="#44AC67"/>
<path d="M405.083 79.886H361.968V82.3621H405.083V79.886Z" fill="#44AC67"/>
<path d="M405.083 50.8078H361.968V53.2838H405.083V50.8078Z" fill="#44AC67"/>
<path d="M404.582 56.255H361.467V58.731H404.582V56.255Z" fill="#44AC67"/>
<path d="M405.083 61.7022H361.968V64.1782H405.083V61.7022Z" fill="#44AC67"/>
<path d="M59.6595 59.3649H0V114.451H59.6595V59.3649Z" fill="#3F3D56"/>
<path d="M51.1368 90.3844H8.02148V92.8603H51.1368V90.3844Z" fill="#44AC67"/>
<path d="M50.6355 95.8316H7.52014V98.3076H50.6355V95.8316Z" fill="#44AC67"/>
<path d="M51.1368 101.279H8.02148V103.755H51.1368V101.279Z" fill="#44AC67"/>
<path d="M51.1368 72.2005H8.02148V74.6765H51.1368V72.2005Z" fill="#44AC67"/>
<path d="M50.6355 77.6477H7.52014V80.1238H50.6355V77.6477Z" fill="#44AC67"/>
<path d="M51.1368 83.095H8.02148V85.571H51.1368V83.095Z" fill="#44AC67"/>
<path d="M282.505 99.4763H158.173V104.824H282.505V99.4763Z" fill="white"/>
<path d="M185.997 117.125H158.173V122.473H185.997V117.125Z" fill="#44AC67"/>
<path d="M185.997 152.423H158.173V157.771H185.997V152.423Z" fill="white"/>
<path d="M281.753 117.125H253.929V122.473H281.753V117.125Z" fill="white"/>
<path d="M282.505 134.774H158.173V140.122H282.505V134.774Z" fill="white"/>
<path d="M282.505 152.423H209.56V157.771H282.505V152.423Z" fill="white"/>
<path d="M270.621 84.8265L269.825 84.1763L324.12 8.55685H378.011V9.62692H324.615L270.621 84.8265Z" fill="#2F2E41"/>
<path d="M161.106 120.206L81.5335 47.5988H28.0751V46.5293H81.9038L161.758 119.393L161.106 120.206Z" fill="#2F2E41"/>
<path d="M378.011 17.1142C382.441 17.1142 386.032 13.283 386.032 8.5571C386.032 3.83114 382.441 0 378.011 0C373.581 0 369.99 3.83114 369.99 8.5571C369.99 13.283 373.581 17.1142 378.011 17.1142Z" fill="#44AC67"/>
<path d="M28.075 55.6211C32.5052 55.6211 36.0965 51.79 36.0965 47.0641C36.0965 42.3381 32.5052 38.507 28.075 38.507C23.6449 38.507 20.0536 42.3381 20.0536 47.0641C20.0536 51.79 23.6449 55.6211 28.075 55.6211Z" fill="#44AC67"/>
<path d="M448.099 299.544C448.099 299.544 459.797 257.56 415.313 233.656L448.099 299.544Z" fill="#D0CDE1"/>
<path d="M449.557 299.768C449.557 299.768 454.194 258.332 506 255.734L449.557 299.768Z" fill="#D0CDE1"/>
<path d="M250.806 293.137L238.714 292.277L242.745 311.625L256.448 305.605L250.806 293.137Z" fill="#FFB9B9"/>
<path d="M361.641 257.021L333.428 227.785L317.307 241.113L285.467 281.958L289.094 287.977L327.786 260.031L353.983 296.577L378.971 283.248L361.641 257.021Z" fill="#2F2E41"/>
<path opacity="0.1" d="M361.641 257.021L333.428 227.785L317.307 241.113L285.467 281.958L289.094 287.977L327.786 260.031L353.983 296.577L378.971 283.248L361.641 257.021Z" fill="black"/>
<path d="M364.059 276.369L360.432 279.378L331.01 268.63L324.159 265.62L310.455 268.63C310.455 268.63 310.455 256.591 323.353 257.021L336.653 260.461L352.371 261.75L364.059 276.369Z" fill="#FFB9B9"/>
<path d="M390.256 308.185L381.39 314.204H370.911L322.143 294.857L250.805 308.615L248.79 292.277L314.082 261.751L371.314 281.958L390.256 308.185Z" fill="#2F2E41"/>
<path d="M333.025 231.654L326.98 232.944L325.662 231.304C324.619 230.006 323.958 228.409 323.763 226.712C323.567 225.015 323.845 223.294 324.561 221.765V221.765L341.489 198.118C341.489 198.118 346.325 186.509 353.983 191.238C361.641 195.968 347.535 203.707 347.535 203.707L339.071 217.895L339.877 225.205L333.025 231.654Z" fill="#FFB9B9"/>
<path d="M371.314 203.707C379.995 203.707 387.032 196.2 387.032 186.939C387.032 177.678 379.995 170.171 371.314 170.171C362.633 170.171 355.595 177.678 355.595 186.939C355.595 196.2 362.633 203.707 371.314 203.707Z" fill="#FFB9B9"/>
<path d="M364.261 199.193L371.515 217.68L388.846 209.941C388.846 209.941 383.203 195.323 383.203 194.893C383.203 194.463 364.261 199.193 364.261 199.193Z" fill="#FFB9B9"/>
<path d="M411.984 253.887C411.984 264.006 410.489 274.063 407.555 283.687L406.378 287.548L400.736 315.064L394.69 316.784L390.257 310.765L381.39 303.886L374.941 292.707L369.411 282.878L367.686 279.808L361.641 247.562L338.668 233.804L331.01 232.514L332.622 227.784L339.474 217.895L346.325 217.036L348.341 215.316L349.953 216.176L356.401 212.306L358.417 213.166L370.201 214.335L377.359 212.736L387.653 206.841L391.869 207.577L406.378 220.475C410.087 231.17 411.986 242.483 411.984 253.887V253.887Z" fill="#575A89"/>
<path d="M242.426 299.794C242.426 299.794 246.036 293.268 244.511 292.506C242.986 291.744 236.511 288.706 236.511 288.706L227.015 285.349C227.015 285.349 213.313 263.625 213.012 282.516C212.711 301.408 222.989 305.949 222.989 305.949C222.989 305.949 232.155 326.993 237.348 323.637C242.54 320.282 247.736 308.891 247.736 308.891C247.736 308.891 238.372 303.521 242.426 299.794Z" fill="#2F2E41"/>
<path opacity="0.1" d="M407.587 250.142L392.272 260.89L369.412 282.878L367.687 279.809L362.85 254.011H364.059L376.554 229.504L407.587 250.142Z" fill="black"/>
<path d="M376.553 226.924L364.059 251.431H359.626L356.805 260.031L350.356 261.751L367.686 281.958L392.272 258.311L407.587 247.562L376.553 226.924Z" fill="#575A89"/>
<path d="M359.088 174.471L357.385 175.17C357.123 174.981 356.899 174.738 356.726 174.455C356.554 174.172 356.436 173.856 356.379 173.524C356.322 173.192 356.328 172.851 356.397 172.522C356.465 172.192 356.595 171.88 356.777 171.605L353.63 171.448C355.65 168.577 358.219 166.197 361.166 164.465C364.113 162.733 367.371 161.688 370.725 161.4C374.079 161.111 377.452 161.586 380.621 162.792C383.79 163.999 386.683 165.909 389.108 168.397C389.252 167.871 390.814 168.895 391.451 169.934C391.666 169.077 393.13 173.218 393.648 176.145C393.888 175.171 394.81 176.744 394.002 178.254C394.514 178.174 394.745 179.571 394.349 180.349C394.909 180.069 394.815 181.736 394.207 182.851C395.006 182.775 387.906 194.532 385.031 201.402C384.196 197.31 383.257 193.002 380.565 189.954C380.108 189.436 379.607 188.964 379.107 188.493L376.401 185.945C373.255 182.982 370.393 179.326 366.202 178.219C363.322 177.458 361.5 177.286 363.07 173.824C361.652 174.455 360.328 175.394 358.897 175.98C358.916 175.497 359.116 174.955 359.088 174.471Z" fill="#2F2E41"/>
<path d="M379.173 191.883C380.731 191.883 381.994 190.536 381.994 188.874C381.994 187.212 380.731 185.864 379.173 185.864C377.615 185.864 376.352 187.212 376.352 188.874C376.352 190.536 377.615 191.883 379.173 191.883Z" fill="#FFB9B9"/>
</svg>
